<svg width="259" height="338" viewBox="0 0 259 338" fill="none" xmlns="http://www.w3.org/2000/svg">
<rect x="0.0859375" y="0.609619" width="258.144" height="337.269" rx="16" fill="#7148E6"/>
<mask id="mask0_843_7043" style="mask-type:alpha" maskUnits="userSpaceOnUse" x="0" y="0" width="259" height="338">
<rect x="0.0859375" y="0.609619" width="258.144" height="337.269" rx="16" fill="#7148E6"/>
</mask>
<g mask="url(#mask0_843_7043)">
<circle cx="-11.1372" cy="42.253" r="85.9878" fill="#805BE7" fill-opacity="0.91"/>
<circle cx="249.025" cy="250.794" r="107.695" fill="#805BE7" fill-opacity="0.91"/>
</g>
<path d="M32.0738 208.382V204.816H35.5989C38.7594 204.816 40.9271 202.831 40.9271 200.076C40.9271 197.361 39.0633 195.558 35.5989 195.558C32.4385 195.558 30.3315 197.381 30.0681 200.258H25.7934C26.1378 195.132 30.0074 191.83 35.8015 191.83C41.3323 191.83 45.3639 194.97 45.3639 199.468C45.3639 203.114 42.9733 205.728 39.3469 206.376V206.457C43.7432 206.761 46.5795 209.456 46.5795 213.548C46.5795 218.653 41.9401 222.158 35.842 222.158C29.5414 222.158 25.4895 218.694 25.2059 213.649H29.5617C29.8453 216.445 32.1549 218.37 35.842 218.37C39.4077 218.37 41.9603 216.344 41.9603 213.487C41.9603 210.327 39.5698 208.382 35.7205 208.382H32.0738Z" fill="white"/>
<path d="M35.7036 272.502L34.1954 268.046H27.911L26.4027 272.502H23.7404L29.6935 256.014H32.4586L38.4116 272.502H35.7036ZM31.0189 258.756L28.5623 265.989H33.5441L31.0874 258.756H31.0189ZM50.9822 264.618H48.6284C48.377 263.338 47.4172 262.321 45.8061 262.321C43.898 262.321 42.6411 263.91 42.6411 266.492C42.6411 269.131 43.9094 270.662 45.829 270.662C47.3487 270.662 48.3427 269.828 48.6284 268.434H51.005C50.7422 270.994 48.6969 272.731 45.8061 272.731C42.3669 272.731 40.1273 270.377 40.1273 266.492C40.1273 262.676 42.3669 260.265 45.7833 260.265C48.8798 260.265 50.7651 262.253 50.9822 264.618ZM54.5261 257.637H57.0056V260.482H59.2908V262.436H57.0056V269.063C57.0056 270.103 57.4626 270.571 58.4681 270.571C58.7195 270.571 59.1194 270.548 59.2794 270.514V272.468C59.0052 272.536 58.4567 272.582 57.9082 272.582C55.4745 272.582 54.5261 271.657 54.5261 269.337V262.436H52.7779V260.482H54.5261V257.637ZM62.4577 272.502V260.482H64.9257V272.502H62.4577ZM63.6917 258.722C62.9033 258.722 62.2634 258.094 62.2634 257.317C62.2634 256.528 62.9033 255.9 63.6917 255.9C64.4915 255.9 65.1314 256.528 65.1314 257.317C65.1314 258.094 64.4915 258.722 63.6917 258.722ZM78.7646 260.482L74.4569 272.502H71.8061L67.4756 260.482H70.1036L73.1201 270.091H73.1658L76.1823 260.482H78.7646ZM85.9192 262.253C84.1938 262.253 82.9827 263.567 82.857 265.384H88.8671C88.81 263.544 87.6445 262.253 85.9192 262.253ZM88.8557 268.971H91.1981C90.8553 271.165 88.7757 272.731 86.022 272.731C82.4913 272.731 80.3547 270.343 80.3547 266.549C80.3547 262.778 82.5256 260.265 85.9192 260.265C89.2556 260.265 91.3352 262.618 91.3352 266.263V267.109H82.8456V267.257C82.8456 269.348 84.1024 270.731 86.0792 270.731C87.4846 270.731 88.5243 270.023 88.8557 268.971ZM39.1657 301.646C39.1657 306.114 36.5263 308.776 32.0587 308.776C27.3397 308.776 24.3689 305.474 24.3689 300.184C24.3689 294.985 27.3282 291.74 32.0244 291.74C35.6922 291.74 38.4687 293.911 39.04 297.202H36.412C35.795 295.156 34.1839 293.979 32.0358 293.979C28.8822 293.979 26.9855 296.288 26.9855 300.161C26.9855 304.103 28.9393 306.537 32.0815 306.537C34.7552 306.537 36.6063 304.823 36.6405 302.321V302.035H32.3786V299.967H39.1657V301.646ZM47.5886 308.731C44.1493 308.731 41.887 306.365 41.887 302.492C41.887 298.63 44.1608 296.265 47.5886 296.265C51.0165 296.265 53.2903 298.63 53.2903 302.492C53.2903 306.365 51.0279 308.731 47.5886 308.731ZM47.5886 306.697C49.5311 306.697 50.7765 305.166 50.7765 302.492C50.7765 299.83 49.5196 298.299 47.5886 298.299C45.6576 298.299 44.4007 299.83 44.4007 302.492C44.4007 305.166 45.6576 306.697 47.5886 306.697ZM60.4563 306.754C62.1816 306.754 63.5299 305.566 63.5299 304V303.052L60.5705 303.235C59.0966 303.337 58.2625 303.989 58.2625 305.017C58.2625 306.068 59.1308 306.754 60.4563 306.754ZM59.7707 308.708C57.4169 308.708 55.7716 307.245 55.7716 305.086C55.7716 302.983 57.3826 301.692 60.2392 301.532L63.5299 301.338V300.412C63.5299 299.076 62.6272 298.276 61.119 298.276C59.6907 298.276 58.7995 298.961 58.5824 300.035H56.2515C56.3886 297.864 58.2396 296.265 61.2104 296.265C64.1241 296.265 65.9865 297.807 65.9865 300.218V308.502H63.6213V306.525H63.5642C62.8672 307.862 61.3475 308.708 59.7707 308.708ZM69.5305 308.502V292.014H71.9985V308.502H69.5305ZM75.371 299.887C75.371 297.739 77.2678 296.265 80.0786 296.265C82.7523 296.265 84.6262 297.762 84.7062 299.898H82.3867C82.2724 298.813 81.3926 298.139 80.01 298.139C78.6732 298.139 77.782 298.79 77.782 299.738C77.782 300.481 78.3761 300.984 79.6216 301.292L81.644 301.761C84.0663 302.343 84.9804 303.257 84.9804 305.029C84.9804 307.222 82.9351 308.731 79.9872 308.731C77.1421 308.731 75.2568 307.257 75.0625 305.051H77.5077C77.702 306.205 78.5932 306.845 80.1015 306.845C81.5869 306.845 82.5009 306.228 82.5009 305.257C82.5009 304.492 82.0439 304.069 80.787 303.749L78.6389 303.223C76.4679 302.698 75.371 301.566 75.371 299.887Z" fill="white"/>
<rect x="21.8613" y="30.2961" width="56.5046" height="54.6121" rx="15" fill="#AB91F2"/>
<path d="M40.3652 65.7258L40.3652 49.4786M59.8618 49.4786L59.8618 65.7258" stroke="white" stroke-width="3.24943" stroke-linecap="round" stroke-linejoin="round"/>
<path d="M59.8618 65.7258C59.8618 68.4177 55.4974 70.6 50.1135 70.6C44.7297 70.6 40.3652 68.4177 40.3652 65.7258" stroke="white" stroke-width="3.24943" stroke-linecap="round" stroke-linejoin="round"/>
<path d="M59.8618 57.6022C59.8618 60.2941 55.4974 62.4763 50.1135 62.4763C44.7297 62.4763 40.3652 60.2941 40.3652 57.6022" stroke="white" stroke-width="3.24943" stroke-linecap="round" stroke-linejoin="round"/>
<path d="M50.1135 54.3528C55.4974 54.3528 59.8618 52.1706 59.8618 49.4786C59.8618 46.7867 55.4974 44.6045 50.1135 44.6045C44.7297 44.6045 40.3652 46.7867 40.3652 49.4786C40.3652 52.1706 44.7297 54.3528 50.1135 54.3528Z" stroke="white" stroke-width="3.24943" stroke-linecap="round" stroke-linejoin="round"/>
</svg>
