<svg width="12" height="17" viewBox="0 0 12 17" fill="none" xmlns="http://www.w3.org/2000/svg">
<path d="M10.0776 9.70079C10.0765 8.66324 10.5656 7.68632 11.3963 7.06637C11.4694 7.00896 11.5158 6.92409 11.5248 6.8315C11.5338 6.73892 11.5046 6.64668 11.4439 6.57624C10.8173 5.87985 9.93867 5.46319 9.00365 5.41901C7.85491 5.31009 6.76054 6.09973 6.17597 6.09973C5.59141 6.09973 4.63978 5.41901 3.68816 5.41901C2.40668 5.45912 1.24139 6.17329 0.622574 7.29782C-0.682509 9.57145 0.289506 12.907 1.52662 14.7722C2.14517 15.6708 2.88608 16.6851 3.86489 16.651C4.8437 16.617 5.15638 16.0452 6.29153 16.0452C7.42668 16.0452 7.74615 16.651 8.73856 16.6306C9.73097 16.6102 10.4175 15.7116 11.0428 14.8131C11.4266 14.2478 11.7393 13.6374 11.9741 12.9955C12.0316 12.8374 11.9652 12.661 11.8177 12.5803C10.7464 12.0211 10.0754 10.9107 10.0776 9.70079Z" fill="white"/>
<path d="M7.46113 3.51695C7.93142 2.88875 8.20688 2.10602 8.24596 1.28681C8.24996 1.17593 8.20826 1.06916 8.13289 0.997288C8.05753 0.925418 7.95688 0.896447 7.85998 0.918732C7.16009 1.09908 6.52801 1.52052 6.05228 2.12402C5.57973 2.7272 5.29716 3.48803 5.24815 4.2892C5.24584 4.39275 5.2833 4.49242 5.351 4.56285C5.4187 4.63328 5.51011 4.66767 5.60197 4.65728C6.32827 4.55581 6.99296 4.14812 7.46113 3.51695Z" fill="white"/>
</svg>
