<svg width="24" height="30" viewBox="0 0 24 30" fill="none" xmlns="http://www.w3.org/2000/svg">
<path d="M2.07666 22.873L2.07666 6.62586M21.5732 6.62585L21.5732 22.873" stroke="#14181F" stroke-width="3.24943" stroke-linecap="round" stroke-linejoin="round"/>
<path d="M21.5732 22.873C21.5732 25.565 17.2088 27.7472 11.825 27.7472C6.44112 27.7472 2.07666 25.565 2.07666 22.873" stroke="#14181F" stroke-width="3.24943" stroke-linecap="round" stroke-linejoin="round"/>
<path d="M21.5732 14.7494C21.5732 17.4413 17.2088 19.6235 11.825 19.6235C6.44112 19.6235 2.07666 17.4413 2.07666 14.7494" stroke="#14181F" stroke-width="3.24943" stroke-linecap="round" stroke-linejoin="round"/>
<path d="M11.825 11.5C17.2088 11.5 21.5732 9.31777 21.5732 6.62585C21.5732 3.93394 17.2088 1.75171 11.825 1.75171C6.44112 1.75171 2.07666 3.93394 2.07666 6.62585C2.07666 9.31777 6.44112 11.5 11.825 11.5Z" stroke="#14181F" stroke-width="3.24943" stroke-linecap="round" stroke-linejoin="round"/>
</svg>
