<svg width="77" height="77" viewBox="0 0 77 77" fill="none" xmlns="http://www.w3.org/2000/svg">
<circle cx="38.722" cy="38.2875" r="37.9427" fill="#7348E0"/>
<path d="M48.5895 44.6437C48.397 44.8368 48.2495 45.0701 48.1576 45.3268C48.0656 45.5835 48.0314 45.8573 48.0573 46.1288C48.1876 47.3851 48.4347 48.6265 48.7953 49.8369C46.2088 49.2381 44.6291 48.5446 43.9116 48.1812C43.5046 47.9751 43.036 47.9263 42.5952 48.044C41.3318 48.3809 40.0296 48.5504 38.722 48.5484C31.3131 48.5484 25.7435 43.344 25.7435 37.4239C25.7435 31.5057 31.3131 26.2994 38.722 26.2994C46.131 26.2994 51.7006 31.5057 51.7006 37.4239C51.7006 40.1457 50.5566 42.6709 48.5895 44.6437ZM49.5035 51.8838C49.9428 51.9709 50.3835 52.0507 50.8255 52.123C51.1963 52.1824 51.4781 51.7967 51.3316 51.4518C51.167 51.0636 51.0161 50.6697 50.8792 50.2708L50.8737 50.2523C50.4139 48.9173 50.0394 47.3821 49.9021 45.9526C52.1771 43.6721 53.5547 40.6871 53.5547 37.4239C53.5547 30.256 46.9134 24.4453 38.722 24.4453C30.5307 24.4453 23.8894 30.256 23.8894 37.4239C23.8894 44.5917 30.5307 50.4024 38.722 50.4024C40.1911 50.4044 41.6541 50.2137 43.0736 49.8351C44.0377 50.3227 46.1124 51.2108 49.5035 51.8838Z" fill="white"/>
</svg>
