<svg width="31" height="31" viewBox="0 0 31 31" fill="none" xmlns="http://www.w3.org/2000/svg">
<path d="M6.01894 0.71788C4.91726 1.11026 4.17777 1.75919 3.64957 2.78542C3.27228 3.50981 3.21191 3.82673 3.21191 4.73222C3.22701 9.25968 9.33907 10.4972 11.2406 6.34702C11.7386 5.26043 11.6632 3.69091 11.0746 2.66469C10.0031 0.853703 7.92047 0.053853 6.01894 0.71788ZM8.59959 2.95143C9.17307 3.37399 9.4598 3.96256 9.4598 4.70204C9.4598 5.96973 8.59959 6.78467 7.25644 6.78467C6.65278 6.78467 6.48677 6.70921 5.97366 6.21119C5.65674 5.89427 5.35491 5.45662 5.30964 5.23024C5.06817 4.27948 5.61147 3.1778 6.50187 2.77033C7.10553 2.49868 8.10157 2.58923 8.59959 2.95143Z" fill="#919AAB"/>
<path d="M15.949 3.60032V4.67182H17.8203C20.0086 4.67182 21.1555 4.95855 22.1818 5.74331C23.5702 6.79972 24.204 8.03722 24.355 9.90857L24.4455 11.0103H25.4717H26.513V10.2859C26.4979 6.96573 24.5059 4.09834 21.4423 2.99666C20.733 2.7401 20.0841 2.64955 18.258 2.60428L15.949 2.52882V3.60032Z" fill="#919AAB"/>
<path d="M3.49856 10.1199C2.65343 10.3312 1.88376 10.9047 1.4612 11.6593C1.15937 12.1724 1.08391 12.5648 1.03864 13.757L0.978271 15.236H2.04977H3.12127V14.0437C3.12127 13.093 3.18163 12.776 3.40801 12.5044C3.69475 12.1422 3.72493 12.1422 7.24125 12.0969L10.7878 12.0517L11.2103 12.4289C11.6178 12.776 11.648 12.8666 11.648 14.0135V15.236H12.6742H13.6853V13.8777C13.6853 11.9158 13.2628 11.0707 11.9498 10.3614C11.3914 10.0445 11.1198 10.0294 7.72418 9.9992C5.7321 9.98411 3.83057 10.0445 3.49856 10.1199Z" fill="#919AAB"/>
<path d="M22.8458 15.6132C21.3366 16.1716 20.1746 17.8467 20.1746 19.4615C20.1746 21.2121 21.0197 22.5855 22.5439 23.325C24.6718 24.3663 27.1468 23.4759 28.2032 21.2876C28.6258 20.4274 28.656 18.7824 28.2636 17.9071C27.8863 17.062 26.9808 16.1414 26.1357 15.749C25.2604 15.3265 23.7814 15.2812 22.8458 15.6132ZM25.5019 17.7864C25.9999 18.058 26.513 18.9635 26.513 19.5521C26.513 20.1256 26.0904 20.9254 25.6075 21.2725C24.6718 21.9365 23.54 21.7856 22.7401 20.8801C22.3779 20.4576 22.2874 20.2161 22.2874 19.6728C22.2874 17.8316 23.9173 16.8809 25.5019 17.7864Z" fill="#919AAB"/>
<path d="M3.16648 20.8499C3.31739 22.9778 4.08706 24.6681 5.50566 25.9811C7.16573 27.5355 8.31269 27.9279 11.3914 28.0184L13.6853 28.0939V27.0375V25.9811L11.4668 25.9207C9.39928 25.8603 9.1729 25.8301 8.37305 25.4378C6.53189 24.5474 5.41511 22.8873 5.27929 20.7896L5.18874 19.6124H4.13233H3.07593L3.16648 20.8499Z" fill="#919AAB"/>
<path d="M19.7371 25.2869C19.224 25.5434 18.8014 25.9056 18.5448 26.298C18.1827 26.8413 18.1374 27.0677 18.0921 28.5466L18.0317 30.1765H19.0127H19.9785L20.054 28.8636C20.1596 26.9318 19.9785 27.0073 24.3853 27.0073C27.9318 27.0073 27.977 27.0073 28.294 27.3544C28.5807 27.6562 28.626 27.8826 28.626 28.939V30.1765H29.6824H30.7388V28.9088C30.7388 26.8866 30.1804 25.8 28.8524 25.1812C28.3091 24.9247 27.8261 24.8945 24.3853 24.8945H20.5369L19.7371 25.2869Z" fill="#919AAB"/>
<rect x="21.5134" y="1.85571" width="8.2821" height="8.2821" rx="0.900057" fill="#D24A46"/>
</svg>
