<svg width="260" height="338" viewBox="0 0 260 338" fill="none" xmlns="http://www.w3.org/2000/svg">
<rect x="0.873047" y="0.609619" width="258.144" height="337.269" rx="16" fill="#00243E"/>
<mask id="mask0_843_7058" style="mask-type:alpha" maskUnits="userSpaceOnUse" x="0" y="0" width="260" height="338">
<rect x="0.873047" y="0.609619" width="258.144" height="337.269" rx="16" fill="#7148E6"/>
</mask>
<g mask="url(#mask0_843_7058)">
<circle cx="-16.3501" cy="42.253" r="85.9878" fill="#1A3A51"/>
<circle cx="249.813" cy="250.794" r="107.695" fill="#1A3A51"/>
</g>
<path d="M32.7075 294.39V296H25.104V284.022H32.7075V285.624H26.9634V289.127H32.4004V290.671H26.9634V294.39H32.7075ZM38.2206 294.73C38.8514 294.73 39.3799 294.539 39.806 294.157C40.2377 293.77 40.4535 293.294 40.4535 292.729V292.041L38.3036 292.173C37.7668 292.212 37.3518 292.345 37.0585 292.572C36.7707 292.793 36.6268 293.092 36.6268 293.468C36.6268 293.85 36.7707 294.157 37.0585 294.39C37.3518 294.617 37.7391 294.73 38.2206 294.73ZM37.7225 296.149C36.8648 296.149 36.1647 295.906 35.6224 295.419C35.0856 294.932 34.8172 294.298 34.8172 293.518C34.8172 292.754 35.0995 292.148 35.6639 291.7C36.2284 291.246 37.028 290.992 38.0629 290.937L40.4535 290.795V290.123C40.4535 289.636 40.2985 289.257 39.9886 288.986C39.6787 288.709 39.2499 288.571 38.702 288.571C38.1929 288.571 37.7779 288.684 37.4569 288.911C37.1415 289.138 36.9422 289.451 36.8592 289.849H35.1659C35.2157 289.041 35.5643 288.383 36.2118 287.874C36.8592 287.364 37.7115 287.11 38.7684 287.11C39.8254 287.11 40.6665 287.37 41.2919 287.89C41.9227 288.41 42.2381 289.108 42.2381 289.982V296H40.5199V294.564H40.4784C40.2294 295.045 39.8503 295.43 39.3412 295.718C38.8376 296.006 38.298 296.149 37.7225 296.149ZM44.7463 296V287.268H46.4563V288.753H46.4978C46.6417 288.244 46.899 287.846 47.2697 287.558C47.6405 287.27 48.0832 287.126 48.5979 287.126C48.7694 287.126 48.9742 287.149 49.2121 287.193V288.861C49.0516 288.795 48.7833 288.762 48.407 288.762C47.8314 288.762 47.3749 288.942 47.0373 289.301C46.7053 289.661 46.5393 290.151 46.5393 290.771V296H44.7463ZM51.0894 296V287.268H52.7994V288.729H52.8409C53.0844 288.219 53.4386 287.824 53.9034 287.542C54.3682 287.259 54.9299 287.118 55.5885 287.118C56.5458 287.118 57.2901 287.406 57.8214 287.981C58.3526 288.551 58.6182 289.34 58.6182 290.347V296H56.817V290.696C56.817 290.032 56.6593 289.528 56.3438 289.185C56.0339 288.836 55.5719 288.662 54.9576 288.662C54.3267 288.662 53.8232 288.867 53.4469 289.276C53.0706 289.686 52.8824 290.231 52.8824 290.912V296H51.0894ZM69.8851 287.126C70.9974 287.126 71.8883 287.533 72.5579 288.347C73.2275 289.16 73.5623 290.256 73.5623 291.634C73.5623 293.012 73.2303 294.11 72.5662 294.929C71.9021 295.743 71.0195 296.149 69.9183 296.149C69.2985 296.149 68.7479 296.008 68.2664 295.726C67.7905 295.444 67.4253 295.056 67.1707 294.564H67.1292V298.889H65.3362V287.268H67.0711V288.77H67.1043C67.3644 288.261 67.7379 287.86 68.2249 287.566C68.7119 287.273 69.2653 287.126 69.8851 287.126ZM69.4119 294.63C70.1202 294.63 70.6819 294.362 71.097 293.825C71.512 293.283 71.7195 292.552 71.7195 291.634C71.7195 290.721 71.512 289.993 71.097 289.451C70.6819 288.908 70.1202 288.637 69.4119 288.637C68.7257 288.637 68.1723 288.911 67.7518 289.459C67.3312 290.007 67.1209 290.732 67.1209 291.634C67.1209 292.541 67.3284 293.269 67.7435 293.817C68.164 294.359 68.7202 294.63 69.4119 294.63ZM82.4787 294.954C81.7261 295.762 80.7217 296.166 79.4655 296.166C78.2093 296.166 77.2049 295.762 76.4523 294.954C75.6997 294.141 75.3234 293.034 75.3234 291.634C75.3234 290.239 75.6997 289.138 76.4523 288.33C77.2049 287.517 78.2093 287.11 79.4655 287.11C80.7217 287.11 81.7261 287.517 82.4787 288.33C83.2313 289.138 83.6076 290.239 83.6076 291.634C83.6076 293.034 83.2313 294.141 82.4787 294.954ZM79.4655 294.688C80.1794 294.688 80.7438 294.42 81.1588 293.883C81.5739 293.347 81.7814 292.597 81.7814 291.634C81.7814 290.676 81.5711 289.929 81.1505 289.393C80.7355 288.856 80.1738 288.587 79.4655 288.587C78.7572 288.587 78.1927 288.856 77.7721 289.393C77.3571 289.929 77.1496 290.676 77.1496 291.634C77.1496 292.597 77.3571 293.347 77.7721 293.883C78.1927 294.42 78.7572 294.688 79.4655 294.688ZM85.8169 296V287.268H87.6099V296H85.8169ZM87.4522 285.69C87.2474 285.89 87.0012 285.989 86.7134 285.989C86.4256 285.989 86.1794 285.89 85.9746 285.69C85.7754 285.491 85.6758 285.25 85.6758 284.968C85.6758 284.681 85.7754 284.437 85.9746 284.238C86.1794 284.039 86.4256 283.939 86.7134 283.939C87.0067 283.939 87.2529 284.039 87.4522 284.238C87.6569 284.437 87.7593 284.681 87.7593 284.968C87.7593 285.25 87.6569 285.491 87.4522 285.69ZM90.2094 296V287.268H91.9193V288.729H91.9608C92.2043 288.219 92.5585 287.824 93.0233 287.542C93.4882 287.259 94.0499 287.118 94.7084 287.118C95.6657 287.118 96.41 287.406 96.9413 287.981C97.4725 288.551 97.7382 289.34 97.7382 290.347V296H95.9369V290.696C95.9369 290.032 95.7792 289.528 95.4638 289.185C95.1539 288.836 94.6918 288.662 94.0775 288.662C93.4467 288.662 92.9431 288.867 92.5668 289.276C92.1905 289.686 92.0023 290.231 92.0023 290.912V296H90.2094ZM100.761 285.201H102.562V287.268H104.222V288.687H102.562V293.501C102.562 293.878 102.648 294.154 102.82 294.332C102.991 294.509 103.26 294.597 103.625 294.597C103.89 294.597 104.087 294.583 104.214 294.556V295.975C103.993 296.03 103.661 296.058 103.218 296.058C102.338 296.058 101.707 295.878 101.325 295.519C100.949 295.153 100.761 294.547 100.761 293.701V288.687H99.491V287.268H100.761V285.201ZM106.307 289.741C106.307 288.961 106.623 288.327 107.254 287.84C107.884 287.353 108.709 287.11 109.727 287.11C110.696 287.11 111.49 287.356 112.109 287.849C112.735 288.336 113.061 288.969 113.089 289.75H111.404C111.36 289.351 111.185 289.038 110.881 288.812C110.577 288.585 110.175 288.471 109.677 288.471C109.19 288.471 108.797 288.579 108.499 288.795C108.205 289.011 108.059 289.29 108.059 289.633C108.059 290.165 108.504 290.541 109.395 290.762L110.864 291.103C111.744 291.313 112.367 291.601 112.732 291.966C113.103 292.326 113.288 292.829 113.288 293.477C113.288 294.273 112.951 294.921 112.275 295.419C111.606 295.917 110.734 296.166 109.661 296.166C108.637 296.166 107.801 295.923 107.154 295.436C106.512 294.949 106.155 294.301 106.083 293.493H107.859C107.931 293.914 108.128 294.237 108.449 294.464C108.77 294.686 109.201 294.796 109.744 294.796C110.281 294.796 110.704 294.694 111.014 294.489C111.329 294.279 111.487 293.997 111.487 293.643C111.487 293.36 111.393 293.136 111.205 292.97C111.017 292.804 110.696 292.663 110.242 292.547L108.681 292.165C107.099 291.783 106.307 290.975 106.307 289.741ZM122.721 294.73C123.351 294.73 123.88 294.539 124.306 294.157C124.738 293.77 124.953 293.294 124.953 292.729V292.041L122.804 292.173C122.267 292.212 121.852 292.345 121.558 292.572C121.271 292.793 121.127 293.092 121.127 293.468C121.127 293.85 121.271 294.157 121.558 294.39C121.852 294.617 122.239 294.73 122.721 294.73ZM122.222 296.149C121.365 296.149 120.665 295.906 120.122 295.419C119.586 294.932 119.317 294.298 119.317 293.518C119.317 292.754 119.599 292.148 120.164 291.7C120.728 291.246 121.528 290.992 122.563 290.937L124.953 290.795V290.123C124.953 289.636 124.798 289.257 124.489 288.986C124.179 288.709 123.75 288.571 123.202 288.571C122.693 288.571 122.278 288.684 121.957 288.911C121.641 289.138 121.442 289.451 121.359 289.849H119.666C119.716 289.041 120.064 288.383 120.712 287.874C121.359 287.364 122.211 287.11 123.268 287.11C124.325 287.11 125.166 287.37 125.792 287.89C126.423 288.41 126.738 289.108 126.738 289.982V296H125.02V294.564H124.978C124.729 295.045 124.35 295.43 123.841 295.718C123.338 296.006 122.798 296.149 122.222 296.149ZM129.089 289.741C129.089 288.961 129.404 288.327 130.035 287.84C130.666 287.353 131.49 287.11 132.508 287.11C133.477 287.11 134.271 287.356 134.891 287.849C135.516 288.336 135.843 288.969 135.87 289.75H134.185C134.141 289.351 133.967 289.038 133.662 288.812C133.358 288.585 132.957 288.471 132.459 288.471C131.972 288.471 131.579 288.579 131.28 288.795C130.987 289.011 130.84 289.29 130.84 289.633C130.84 290.165 131.285 290.541 132.176 290.762L133.646 291.103C134.526 291.313 135.148 291.601 135.513 291.966C135.884 292.326 136.07 292.829 136.07 293.477C136.07 294.273 135.732 294.921 135.057 295.419C134.387 295.917 133.516 296.166 132.442 296.166C131.418 296.166 130.583 295.923 129.935 295.436C129.293 294.949 128.936 294.301 128.864 293.493H130.641C130.713 293.914 130.909 294.237 131.23 294.464C131.551 294.686 131.983 294.796 132.525 294.796C133.062 294.796 133.485 294.694 133.795 294.489C134.111 294.279 134.268 293.997 134.268 293.643C134.268 293.36 134.174 293.136 133.986 292.97C133.798 292.804 133.477 292.663 133.023 292.547L131.463 292.165C129.88 291.783 129.089 290.975 129.089 289.741ZM143.31 299.254C142.973 299.254 142.729 299.24 142.58 299.212V297.76C142.669 297.782 142.862 297.793 143.161 297.793C143.582 297.793 143.911 297.696 144.149 297.502C144.387 297.314 144.575 296.996 144.713 296.548C144.713 296.542 144.741 296.451 144.796 296.274L144.871 296.008L141.717 287.268H143.659L145.875 294.373H145.9L148.117 287.268H150.009L146.73 296.457C146.36 297.514 145.925 298.244 145.427 298.648C144.929 299.052 144.224 299.254 143.31 299.254ZM158.344 294.954C157.592 295.762 156.587 296.166 155.331 296.166C154.075 296.166 153.071 295.762 152.318 294.954C151.566 294.141 151.189 293.034 151.189 291.634C151.189 290.239 151.566 289.138 152.318 288.33C153.071 287.517 154.075 287.11 155.331 287.11C156.587 287.11 157.592 287.517 158.344 288.33C159.097 289.138 159.473 290.239 159.473 291.634C159.473 293.034 159.097 294.141 158.344 294.954ZM155.331 294.688C156.045 294.688 156.61 294.42 157.025 293.883C157.44 293.347 157.647 292.597 157.647 291.634C157.647 290.676 157.437 289.929 157.016 289.393C156.601 288.856 156.04 288.587 155.331 288.587C154.623 288.587 154.059 288.856 153.638 289.393C153.223 289.929 153.015 290.676 153.015 291.634C153.015 292.597 153.223 293.347 153.638 293.883C154.059 294.42 154.623 294.688 155.331 294.688ZM169.112 287.268V296H167.394V294.522H167.352C166.849 295.613 165.947 296.158 164.646 296.158C163.694 296.158 162.944 295.87 162.397 295.294C161.854 294.713 161.583 293.922 161.583 292.92V287.268H163.376V292.572C163.376 293.241 163.534 293.75 163.849 294.099C164.165 294.442 164.63 294.614 165.244 294.614C165.886 294.614 166.392 294.409 166.763 294C167.134 293.59 167.319 293.042 167.319 292.356V287.268H169.112ZM175.938 296V284.022H177.731V296H175.938ZM185.51 289.185C185.117 288.764 184.611 288.554 183.991 288.554C183.371 288.554 182.856 288.767 182.447 289.193C182.037 289.614 181.811 290.159 181.766 290.829H186.133C186.11 290.153 185.903 289.606 185.51 289.185ZM186.124 293.435H187.826C187.699 294.237 187.289 294.893 186.597 295.402C185.906 295.911 185.062 296.166 184.066 296.166C182.787 296.166 181.78 295.765 181.044 294.962C180.314 294.154 179.948 293.059 179.948 291.675C179.948 290.303 180.314 289.199 181.044 288.363C181.78 287.528 182.762 287.11 183.991 287.11C185.197 287.11 186.155 287.506 186.863 288.297C187.571 289.083 187.925 290.14 187.925 291.468V292.082H181.758V292.19C181.758 292.954 181.971 293.565 182.397 294.024C182.823 294.484 183.393 294.713 184.107 294.713C184.611 294.713 185.042 294.597 185.402 294.365C185.762 294.132 186.002 293.822 186.124 293.435ZM193.14 294.73C193.771 294.73 194.299 294.539 194.725 294.157C195.157 293.77 195.373 293.294 195.373 292.729V292.041L193.223 292.173C192.686 292.212 192.271 292.345 191.978 292.572C191.69 292.793 191.546 293.092 191.546 293.468C191.546 293.85 191.69 294.157 191.978 294.39C192.271 294.617 192.658 294.73 193.14 294.73ZM192.642 296.149C191.784 296.149 191.084 295.906 190.542 295.419C190.005 294.932 189.736 294.298 189.736 293.518C189.736 292.754 190.019 292.148 190.583 291.7C191.148 291.246 191.947 290.992 192.982 290.937L195.373 290.795V290.123C195.373 289.636 195.218 289.257 194.908 288.986C194.598 288.709 194.169 288.571 193.621 288.571C193.112 288.571 192.697 288.684 192.376 288.911C192.061 289.138 191.861 289.451 191.778 289.849H190.085C190.135 289.041 190.483 288.383 191.131 287.874C191.778 287.364 192.631 287.11 193.688 287.11C194.745 287.11 195.586 287.37 196.211 287.89C196.842 288.41 197.157 289.108 197.157 289.982V296H195.439V294.564H195.398C195.148 295.045 194.769 295.43 194.26 295.718C193.757 296.006 193.217 296.149 192.642 296.149ZM199.665 296V287.268H201.375V288.753H201.417C201.561 288.244 201.818 287.846 202.189 287.558C202.56 287.27 203.002 287.126 203.517 287.126C203.689 287.126 203.893 287.149 204.131 287.193V288.861C203.971 288.795 203.702 288.762 203.326 288.762C202.751 288.762 202.294 288.942 201.956 289.301C201.624 289.661 201.458 290.151 201.458 290.771V296H199.665ZM206.009 296V287.268H207.719V288.729H207.76C208.004 288.219 208.358 287.824 208.823 287.542C209.287 287.259 209.849 287.118 210.508 287.118C211.465 287.118 212.209 287.406 212.741 287.981C213.272 288.551 213.537 289.34 213.537 290.347V296H211.736V290.696C211.736 290.032 211.578 289.528 211.263 289.185C210.953 288.836 210.491 288.662 209.877 288.662C209.246 288.662 208.742 288.867 208.366 289.276C207.99 289.686 207.802 290.231 207.802 290.912V296H206.009Z" fill="white"/>
<path d="M25.0189 267.909H27.544C27.6355 268.724 28.043 269.379 28.7666 269.874C29.4903 270.369 30.3968 270.617 31.4861 270.617C32.522 270.617 33.3752 270.377 34.0455 269.897C34.7235 269.417 35.0624 268.808 35.0624 268.069C35.0624 267.429 34.8225 266.907 34.3426 266.503C33.8627 266.092 33.0895 265.757 32.0231 265.498L29.8864 264.984C28.3705 264.618 27.2508 264.073 26.5271 263.35C25.8111 262.626 25.4531 261.689 25.4531 260.539C25.4531 259.122 26.0091 257.968 27.1213 257.077C28.241 256.186 29.6845 255.74 31.4518 255.74C33.1886 255.74 34.6054 256.186 35.7023 257.077C36.7992 257.96 37.3667 259.114 37.4048 260.539H34.9139C34.8377 259.724 34.4835 259.08 33.8513 258.608C33.2266 258.136 32.4154 257.899 31.4175 257.899C30.4272 257.899 29.6198 258.128 28.9952 258.585C28.3782 259.042 28.0697 259.636 28.0697 260.368C28.0697 260.946 28.302 261.423 28.7666 261.796C29.2313 262.161 29.9969 262.478 31.0633 262.744L32.8801 263.19C34.5711 263.586 35.7899 264.146 36.5364 264.869C37.2905 265.585 37.6676 266.549 37.6676 267.76C37.6676 269.299 37.0963 270.522 35.9537 271.428C34.8111 272.327 33.2609 272.776 31.3032 272.776C29.4674 272.776 27.9782 272.338 26.8356 271.462C25.7006 270.579 25.095 269.394 25.0189 267.909ZM40.8116 272.502V256.014H43.2797V272.502H40.8116ZM46.9493 272.502V260.482H49.4173V272.502H46.9493ZM49.2002 258.311C48.9184 258.585 48.5794 258.722 48.1833 258.722C47.7872 258.722 47.4482 258.585 47.1664 258.311C46.8922 258.037 46.755 257.705 46.755 257.317C46.755 256.921 46.8922 256.585 47.1664 256.311C47.4482 256.037 47.7872 255.9 48.1833 255.9C48.587 255.9 48.926 256.037 49.2002 256.311C49.4821 256.585 49.623 256.921 49.623 257.317C49.623 257.705 49.4821 258.037 49.2002 258.311ZM63.3133 264.618H60.9596C60.8301 263.94 60.5177 263.388 60.0226 262.961C59.5351 262.535 58.9067 262.321 58.1373 262.321C57.1775 262.321 56.4081 262.698 55.8292 263.453C55.2579 264.199 54.9723 265.212 54.9723 266.492C54.9723 267.795 55.2579 268.815 55.8292 269.554C56.4081 270.293 57.1851 270.662 58.1602 270.662C58.9143 270.662 59.5313 270.468 60.0112 270.08C60.4987 269.684 60.8148 269.135 60.9596 268.434H63.3362C63.2067 269.722 62.6659 270.761 61.7137 271.554C60.7691 272.338 59.577 272.731 58.1373 272.731C56.4081 272.731 55.0294 272.175 54.001 271.062C52.9727 269.943 52.4585 268.419 52.4585 266.492C52.4585 264.588 52.9727 263.076 54.001 261.956C55.0294 260.828 56.4005 260.265 58.1144 260.265C59.6075 260.265 60.8186 260.684 61.748 261.522C62.6773 262.352 63.1991 263.384 63.3133 264.618ZM73.2559 263.121C72.7151 262.542 72.0181 262.253 71.1649 262.253C70.3118 262.253 69.6033 262.546 69.0397 263.133C68.476 263.712 68.1637 264.462 68.1027 265.384H74.1129C74.0824 264.454 73.7967 263.7 73.2559 263.121ZM74.1014 268.971H76.4438C76.2686 270.076 75.7049 270.979 74.7527 271.679C73.8006 272.38 72.6389 272.731 71.2678 272.731C69.5081 272.731 68.1218 272.178 67.1086 271.074C66.1031 269.962 65.6004 268.453 65.6004 266.549C65.6004 264.66 66.1031 263.14 67.1086 261.99C68.1218 260.84 69.4739 260.265 71.1649 260.265C72.8255 260.265 74.1433 260.809 75.1184 261.899C76.0934 262.98 76.5809 264.435 76.5809 266.263V267.109H68.0913V267.257C68.0913 268.309 68.3846 269.15 68.9711 269.783C69.5576 270.415 70.3422 270.731 71.3249 270.731C72.0181 270.731 72.6122 270.571 73.1074 270.251C73.6025 269.931 73.9339 269.505 74.1014 268.971ZM91.6214 260.288C93.1525 260.288 94.3789 260.847 95.3006 261.967C96.2223 263.087 96.6831 264.595 96.6831 266.492C96.6831 268.389 96.2261 269.901 95.312 271.028C94.3979 272.148 93.1829 272.708 91.6671 272.708C90.8139 272.708 90.056 272.514 89.3933 272.125C88.7382 271.737 88.2354 271.203 87.885 270.525H87.8279V276.478H85.3598V260.482H87.7479V262.55H87.7936C88.1516 261.849 88.6658 261.297 89.3361 260.893C90.0065 260.489 90.7682 260.288 91.6214 260.288ZM90.9701 270.617C91.9451 270.617 92.7183 270.247 93.2896 269.508C93.8609 268.762 94.1465 267.756 94.1465 266.492C94.1465 265.235 93.8609 264.233 93.2896 263.487C92.7183 262.74 91.9451 262.367 90.9701 262.367C90.0255 262.367 89.2638 262.744 88.6848 263.498C88.1059 264.252 87.8165 265.25 87.8165 266.492C87.8165 267.741 88.1021 268.743 88.6734 269.497C89.2523 270.244 90.0179 270.617 90.9701 270.617ZM108.957 271.062C107.921 272.175 106.538 272.731 104.809 272.731C103.08 272.731 101.697 272.175 100.661 271.062C99.6253 269.943 99.1073 268.419 99.1073 266.492C99.1073 264.572 99.6253 263.056 100.661 261.944C101.697 260.825 103.08 260.265 104.809 260.265C106.538 260.265 107.921 260.825 108.957 261.944C109.993 263.056 110.511 264.572 110.511 266.492C110.511 268.419 109.993 269.943 108.957 271.062ZM104.809 270.697C105.792 270.697 106.569 270.327 107.14 269.588C107.711 268.85 107.997 267.817 107.997 266.492C107.997 265.174 107.707 264.146 107.128 263.407C106.557 262.668 105.784 262.299 104.809 262.299C103.834 262.299 103.057 262.668 102.478 263.407C101.907 264.146 101.621 265.174 101.621 266.492C101.621 267.817 101.907 268.85 102.478 269.588C103.057 270.327 103.834 270.697 104.809 270.697ZM113.552 272.502V260.482H116.02V272.502H113.552ZM115.803 258.311C115.521 258.585 115.182 258.722 114.786 258.722C114.39 258.722 114.051 258.585 113.769 258.311C113.495 258.037 113.358 257.705 113.358 257.317C113.358 256.921 113.495 256.585 113.769 256.311C114.051 256.037 114.39 255.9 114.786 255.9C115.19 255.9 115.528 256.037 115.803 256.311C116.085 256.585 116.225 256.921 116.225 257.317C116.225 257.705 116.085 258.037 115.803 258.311ZM119.598 272.502V260.482H121.952V262.493H122.009C122.344 261.792 122.832 261.247 123.471 260.859C124.111 260.47 124.885 260.276 125.791 260.276C127.109 260.276 128.133 260.672 128.865 261.464C129.596 262.249 129.962 263.335 129.962 264.721V272.502H127.482V265.201C127.482 264.287 127.265 263.593 126.831 263.121C126.404 262.641 125.768 262.401 124.923 262.401C124.054 262.401 123.361 262.683 122.843 263.247C122.325 263.811 122.066 264.561 122.066 265.498V272.502H119.598ZM134.122 257.637H136.602V260.482H138.887V262.436H136.602V269.063C136.602 269.581 136.72 269.962 136.956 270.205C137.192 270.449 137.562 270.571 138.064 270.571C138.43 270.571 138.701 270.552 138.876 270.514V272.468C138.571 272.544 138.114 272.582 137.505 272.582C136.293 272.582 135.425 272.334 134.899 271.839C134.381 271.337 134.122 270.503 134.122 269.337V262.436H132.374V260.482H134.122V257.637ZM141.757 263.887C141.757 262.813 142.191 261.941 143.06 261.27C143.928 260.6 145.063 260.265 146.465 260.265C147.798 260.265 148.891 260.604 149.744 261.282C150.605 261.952 151.054 262.824 151.092 263.898H148.773C148.712 263.35 148.472 262.919 148.053 262.607C147.634 262.295 147.082 262.139 146.396 262.139C145.726 262.139 145.185 262.287 144.773 262.584C144.37 262.881 144.168 263.266 144.168 263.738C144.168 264.47 144.781 264.987 146.007 265.292L148.03 265.761C149.241 266.05 150.098 266.446 150.601 266.949C151.111 267.444 151.366 268.137 151.366 269.029C151.366 270.125 150.902 271.017 149.972 271.702C149.051 272.388 147.851 272.731 146.373 272.731C144.964 272.731 143.814 272.395 142.922 271.725C142.039 271.055 141.547 270.164 141.448 269.051H143.894C143.993 269.63 144.263 270.076 144.705 270.388C145.147 270.693 145.741 270.845 146.487 270.845C147.226 270.845 147.809 270.704 148.236 270.423C148.67 270.133 148.887 269.745 148.887 269.257C148.887 268.869 148.757 268.56 148.498 268.332C148.239 268.103 147.798 267.909 147.173 267.749L145.025 267.223C142.846 266.698 141.757 265.585 141.757 263.887Z" fill="white"/>
<rect x="22.6484" y="30.2961" width="56.5046" height="54.6121" rx="15" fill="#657B89"/>
<path d="M41.1523 65.7258L41.1523 49.4786M60.6489 49.4786L60.6489 65.7258" stroke="white" stroke-width="3.24943" stroke-linecap="round" stroke-linejoin="round"/>
<path d="M60.6489 65.7258C60.6489 68.4177 56.2845 70.6 50.9006 70.6C45.5168 70.6 41.1523 68.4177 41.1523 65.7258" stroke="white" stroke-width="3.24943" stroke-linecap="round" stroke-linejoin="round"/>
<path d="M60.6489 57.6022C60.6489 60.2941 56.2845 62.4763 50.9006 62.4763C45.5168 62.4763 41.1523 60.2941 41.1523 57.6022" stroke="white" stroke-width="3.24943" stroke-linecap="round" stroke-linejoin="round"/>
<path d="M50.9006 54.3528C56.2845 54.3528 60.6489 52.1706 60.6489 49.4786C60.6489 46.7867 56.2845 44.6045 50.9006 44.6045C45.5168 44.6045 41.1523 46.7867 41.1523 49.4786C41.1523 52.1706 45.5168 54.3528 50.9006 54.3528Z" stroke="white" stroke-width="3.24943" stroke-linecap="round" stroke-linejoin="round"/>
</svg>
