<svg width="26" height="25" viewBox="0 0 26 25" fill="none" xmlns="http://www.w3.org/2000/svg">
<path d="M22.6389 23.4464L2.50837 23.4464C1.85438 23.4464 1.32422 22.9162 1.32422 22.2622L1.32422 6.86829L21.4548 6.86829C22.1088 6.86829 22.6389 7.39845 22.6389 8.05244V15.1573" stroke="#919AAB" stroke-width="2.3683" stroke-linecap="round" stroke-linejoin="round"/>
<path d="M2.89385 23.4464L21.7455 23.4464C22.2742 23.4464 22.7388 23.0959 22.8841 22.5876L24.5757 16.6668C24.7918 15.9104 24.2239 15.1573 23.4371 15.1573L3.69229 15.1573L1.75527 21.9369C1.53914 22.6934 2.10713 23.4464 2.89385 23.4464Z" stroke="#919AAB" stroke-width="2.3683" stroke-linecap="round" stroke-linejoin="round"/>
<path d="M11.9816 6.8683L9.9601 4.84683C9.73803 4.62476 9.43683 4.5 9.12278 4.5H2.50837C1.85438 4.5 1.32422 5.03016 1.32422 5.68415V6.8683" stroke="#919AAB" stroke-width="2.3683" stroke-linecap="round" stroke-linejoin="round"/>
<rect x="16.9961" y="0.953003" width="8.28" height="8.28" rx="1.02832" fill="#D24A46"/>
</svg>
