<svg width="49" height="49" viewBox="0 0 49 49" fill="none" xmlns="http://www.w3.org/2000/svg">
<path d="M45.8516 0.065918H3.14842C1.68574 0.065918 0.5 1.25165 0.5 2.71433V45.4175C0.5 46.8802 1.68574 48.0659 3.14842 48.0659H45.8516C47.3143 48.0659 48.5 46.8802 48.5 45.4175V2.71433C48.5 1.25165 47.3143 0.065918 45.8516 0.065918Z" fill="#3D5A98"/>
<path d="M33.6156 48.062V29.4744H39.8534L40.7862 22.2308H33.6156V17.6072C33.6156 15.5104 34.1997 14.0787 37.205 14.0787H41.0417V7.5895C39.1839 7.39587 37.3168 7.30381 35.4488 7.31371C29.9249 7.31371 26.1206 10.68 26.1206 16.8894V22.2308H19.8828V29.4744H26.1206V48.062H33.6156Z" fill="white"/>
</svg>
