<svg width="78" height="46" viewBox="0 0 78 46" fill="none" xmlns="http://www.w3.org/2000/svg">
<path d="M61.5714 38.6373V45.0659H23V38.6373C23 38.6373 23 25.7802 42.2857 25.7802C61.5714 25.7802 61.5714 38.6373 61.5714 38.6373ZM51.9286 9.70878C51.9286 7.8016 51.363 5.93725 50.3035 4.35149C49.2439 2.76573 47.7379 1.52979 45.9759 0.799941C44.2139 0.0700961 42.275 -0.120865 40.4045 0.251207C38.534 0.623279 36.8158 1.54167 35.4672 2.89025C34.1186 4.23883 33.2002 5.95702 32.8281 7.82755C32.4561 9.69808 32.647 11.6369 33.3769 13.3989C34.1067 15.1609 35.3427 16.6669 36.9284 17.7265C38.5142 18.7861 40.3785 19.3516 42.2857 19.3516C44.8432 19.3516 47.2959 18.3357 49.1042 16.5273C50.9126 14.7189 51.9286 12.2662 51.9286 9.70878ZM62.2143 25.9731C63.9713 27.594 65.3878 29.5488 66.3812 31.7231C67.3746 33.8975 67.9249 36.248 68 38.6373V45.0659H77.6429V38.6373C77.6429 38.6373 77.6429 27.5481 62.2143 25.9731ZM58.3571 0.0659216C57.386 0.0665028 56.4209 0.218322 55.4964 0.515921C57.3769 3.21261 58.3852 6.42115 58.3852 9.70878C58.3852 12.9964 57.3769 16.2049 55.4964 18.9016C56.4209 19.1992 57.386 19.3511 58.3571 19.3516C60.9146 19.3516 63.3673 18.3357 65.1757 16.5273C66.9841 14.7189 68 12.2662 68 9.70878C68 7.15133 66.9841 4.69864 65.1757 2.89025C63.3673 1.08186 60.9146 0.0659216 58.3571 0.0659216ZM26.2143 16.1373H16.5714V6.49449H10.1429V16.1373H0.5V22.5659H10.1429V32.2088H16.5714V22.5659H26.2143V16.1373Z" fill="#D9D9D9"/>
</svg>
