<svg width="168" height="167" viewBox="0 0 168 167" fill="none" xmlns="http://www.w3.org/2000/svg">
<g id="Group 151" opacity="0.8" filter="url(#filter0_d_847_6496)">
<g id="Group 148">
<rect id="Rectangle 299" x="4.78125" width="159" height="159" rx="20" fill="#E8D078"/>
</g>
<g id="Group 149" opacity="0.4">
<path id="Vector" d="M44.4246 42.1888C43.5872 42.1888 43.001 42.8587 43.001 43.6961V43.7799C41.745 65.4765 45.5383 93.4117 63.1067 113.718C73.2391 126.028 83.1286 129.235 83.631 129.403C83.631 129.403 83.8655 129.478 84.0832 129.478C84.3009 129.478 84.5605 129.394 84.5605 129.394C84.9792 129.227 95.0111 126.028 105.068 113.718C121.74 93.4452 125.174 64.4633 125.174 43.7799V43.6961C125.174 42.8587 124.504 42.1888 123.75 42.1888C123.499 42.1888 99.3739 41.3514 85.222 29.3768C84.6359 28.8744 83.7985 28.8744 83.2123 29.3768C68.8846 41.2677 44.6758 42.1051 44.4246 42.1888Z" fill="#B0BEC5"/>
<path id="Vector_2" d="M123.743 42.1888C123.491 42.1888 99.3663 41.3514 85.2145 29.3768C84.8795 29.0837 84.5194 29 84.1761 29H84.084V129.486C84.3101 129.478 84.6032 129.394 84.6032 129.386C85.1056 129.176 95.0202 126.036 105.069 113.727C121.741 93.4536 125.175 64.4717 125.175 43.7882V43.7045C125.175 42.8587 124.505 42.1888 123.743 42.1888Z" fill="#84B0C1"/>
<path id="Vector_3" d="M52.4303 49.3564C51.7436 49.3564 51.5762 50.2105 51.5762 50.8135V50.8972C51.5762 67.4104 54.1386 90.5893 67.4865 106.759C75.5254 116.599 83.3968 119.161 83.7402 119.245L84.0835 119.328L84.4268 119.245C84.7702 119.161 92.6416 116.59 100.68 106.759C114.028 90.5893 116.591 67.4942 116.591 50.8972V50.8135C116.591 50.1268 116.247 49.616 115.561 49.616H115.645C115.477 49.616 96.2256 48.9293 84.9376 39.4334C83.9411 38.6127 83.3131 39.2659 83.3131 39.2659C71.9414 48.7619 52.6899 49.3564 52.4303 49.3564Z" fill="#2F7889"/>
<path id="Vector_4" d="M54.8164 50.8303C54.18 50.8303 54.0293 51.6342 54.0293 52.2036V52.2874C54.0293 67.8376 56.3991 89.6766 68.7422 104.909C76.1782 114.179 83.455 116.59 83.7732 116.674L84.0915 116.758L84.4097 116.674C84.7279 116.59 92.0048 114.179 99.4407 104.909C111.775 89.6766 114.154 67.9213 114.154 52.2874V52.2036C114.154 51.5588 113.835 51.0731 113.207 51.0731H113.283C113.124 51.0731 95.3292 50.4284 84.887 41.4851C84.0998 40.6896 83.388 41.326 83.388 41.326C72.8537 50.2693 55.0593 50.8303 54.8164 50.8303Z" fill="#C9E3E6"/>
<path id="Vector_5" d="M113.192 51.0734H113.267C113.108 51.0734 95.3133 50.4286 84.8711 41.4854C84.5864 41.2007 84.3185 41.1002 84.084 41.0918V116.75L84.4022 116.666C84.7204 116.582 91.9973 114.17 99.4333 104.901C111.768 89.6685 114.146 67.9133 114.146 52.2793V52.1955C114.138 51.5591 113.828 51.0734 113.192 51.0734Z" fill="#B0BEC5"/>
<path id="Vector_6" d="M89.5263 39.3583C90.4189 39.3583 91.1425 38.6347 91.1425 37.7421C91.1425 36.8496 90.4189 36.126 89.5263 36.126C88.6337 36.126 87.9102 36.8496 87.9102 37.7421C87.9102 38.6347 88.6337 39.3583 89.5263 39.3583Z" fill="#37474F"/>
<path id="Vector_7" d="M99.2236 43.7382C100.116 43.7382 100.84 43.0146 100.84 42.122C100.84 41.2294 100.116 40.5059 99.2236 40.5059C98.331 40.5059 97.6074 41.2294 97.6074 42.122C97.6074 43.0146 98.331 43.7382 99.2236 43.7382Z" fill="#37474F"/>
<path id="Vector_8" d="M109.94 46.703C110.833 46.703 111.557 45.9794 111.557 45.0869C111.557 44.1943 110.833 43.4707 109.94 43.4707C109.048 43.4707 108.324 44.1943 108.324 45.0869C108.324 45.9794 109.048 46.703 109.94 46.703Z" fill="#37474F"/>
<path id="Vector_9" d="M120.944 48.3182C121.837 48.3182 122.56 47.5947 122.56 46.7021C122.56 45.8095 121.837 45.0859 120.944 45.0859C120.052 45.0859 119.328 45.8095 119.328 46.7021C119.328 47.5947 120.052 48.3182 120.944 48.3182Z" fill="#37474F"/>
<path id="Vector_10" d="M121.296 58.1991C122.188 58.1991 122.912 57.4755 122.912 56.583C122.912 55.6904 122.188 54.9668 121.296 54.9668C120.403 54.9668 119.68 55.6904 119.68 56.583C119.68 57.4755 120.403 58.1991 121.296 58.1991Z" fill="#37474F"/>
<path id="Vector_11" d="M119.999 69.7723C120.892 69.7723 121.615 69.0488 121.615 68.1562C121.615 67.2636 120.892 66.54 119.999 66.54C119.106 66.54 118.383 67.2636 118.383 68.1562C118.383 69.0488 119.106 69.7723 119.999 69.7723Z" fill="#37474F"/>
<path id="Vector_12" d="M84.0419 126.17C84.9345 126.17 85.6581 125.446 85.6581 124.554C85.6581 123.661 84.9345 122.938 84.0419 122.938C83.1494 122.938 82.4258 123.661 82.4258 124.554C82.4258 125.446 83.1494 126.17 84.0419 126.17Z" fill="#37474F"/>
<path id="Vector_13" d="M93.5205 121.648C94.413 121.648 95.1366 120.925 95.1366 120.032C95.1366 119.14 94.413 118.416 93.5205 118.416C92.6279 118.416 91.9043 119.14 91.9043 120.032C91.9043 120.925 92.6279 121.648 93.5205 121.648Z" fill="#37474F"/>
<path id="Vector_14" d="M102.179 113.274C103.071 113.274 103.795 112.551 103.795 111.658C103.795 110.766 103.071 110.042 102.179 110.042C101.286 110.042 100.562 110.766 100.562 111.658C100.562 112.551 101.286 113.274 102.179 113.274Z" fill="#37474F"/>
<path id="Vector_15" d="M108.936 103.695C109.829 103.695 110.553 102.972 110.553 102.079C110.553 101.186 109.829 100.463 108.936 100.463C108.044 100.463 107.32 101.186 107.32 102.079C107.32 102.972 108.044 103.695 108.936 103.695Z" fill="#37474F"/>
<path id="Vector_16" d="M113.843 93.4198C114.735 93.4198 115.459 92.6962 115.459 91.8037C115.459 90.9111 114.735 90.1875 113.843 90.1875C112.95 90.1875 112.227 90.9111 112.227 91.8037C112.227 92.6962 112.95 93.4198 113.843 93.4198Z" fill="#37474F"/>
<path id="Vector_17" d="M117.694 81.4042C118.587 81.4042 119.31 80.6806 119.31 79.788C119.31 78.8955 118.587 78.1719 117.694 78.1719C116.802 78.1719 116.078 78.8955 116.078 79.788C116.078 80.6806 116.802 81.4042 117.694 81.4042Z" fill="#37474F"/>
<path id="Vector_18" d="M89.124 38.8222C90.0165 38.8222 90.7401 38.0986 90.7401 37.206C90.7401 36.3134 90.0165 35.5898 89.124 35.5898C88.2314 35.5898 87.5078 36.3134 87.5078 37.206C87.5078 38.0986 88.2314 38.8222 89.124 38.8222Z" fill="#B9E4EA"/>
<path id="Vector_19" d="M98.8212 43.202C99.7138 43.202 100.437 42.4785 100.437 41.5859C100.437 40.6933 99.7138 39.9697 98.8212 39.9697C97.9287 39.9697 97.2051 40.6933 97.2051 41.5859C97.2051 42.4785 97.9287 43.202 98.8212 43.202Z" fill="#B9E4EA"/>
<path id="Vector_20" d="M109.538 46.1659C110.431 46.1659 111.154 45.4423 111.154 44.5497C111.154 43.6572 110.431 42.9336 109.538 42.9336C108.645 42.9336 107.922 43.6572 107.922 44.5497C107.922 45.4423 108.645 46.1659 109.538 46.1659Z" fill="#B9E4EA"/>
<path id="Vector_21" d="M120.534 47.7831C121.427 47.7831 122.15 47.0595 122.15 46.1669C122.15 45.2744 121.427 44.5508 120.534 44.5508C119.642 44.5508 118.918 45.2744 118.918 46.1669C118.918 47.0595 119.642 47.7831 120.534 47.7831Z" fill="#B9E4EA"/>
<path id="Vector_22" d="M120.893 57.664C121.786 57.664 122.51 56.9404 122.51 56.0478C122.51 55.1552 121.786 54.4316 120.893 54.4316C120.001 54.4316 119.277 55.1552 119.277 56.0478C119.277 56.9404 120.001 57.664 120.893 57.664Z" fill="#B9E4EA"/>
<path id="Vector_23" d="M119.589 69.2362C120.481 69.2362 121.205 68.5126 121.205 67.6201C121.205 66.7275 120.481 66.0039 119.589 66.0039C118.696 66.0039 117.973 66.7275 117.973 67.6201C117.973 68.5126 118.696 69.2362 119.589 69.2362Z" fill="#B9E4EA"/>
<path id="Vector_24" d="M83.6396 125.635C84.5322 125.635 85.2557 124.911 85.2557 124.018C85.2557 123.126 84.5322 122.402 83.6396 122.402C82.747 122.402 82.0234 123.126 82.0234 124.018C82.0234 124.911 82.747 125.635 83.6396 125.635Z" fill="#EEEEEE"/>
<path id="Vector_25" d="M93.1201 121.112C94.0126 121.112 94.7362 120.389 94.7362 119.496C94.7362 118.603 94.0126 117.88 93.1201 117.88C92.2275 117.88 91.5039 118.603 91.5039 119.496C91.5039 120.389 92.2275 121.112 93.1201 121.112Z" fill="#B9E4EA"/>
<path id="Vector_26" d="M101.776 112.738C102.669 112.738 103.392 112.015 103.392 111.122C103.392 110.229 102.669 109.506 101.776 109.506C100.884 109.506 100.16 110.229 100.16 111.122C100.16 112.015 100.884 112.738 101.776 112.738Z" fill="#B9E4EA"/>
<path id="Vector_27" d="M108.536 103.159C109.429 103.159 110.152 102.435 110.152 101.543C110.152 100.65 109.429 99.9268 108.536 99.9268C107.643 99.9268 106.92 100.65 106.92 101.543C106.92 102.435 107.643 103.159 108.536 103.159Z" fill="#B9E4EA"/>
<path id="Vector_28" d="M113.44 92.8847C114.333 92.8847 115.057 92.1611 115.057 91.2685C115.057 90.3759 114.333 89.6523 113.44 89.6523C112.548 89.6523 111.824 90.3759 111.824 91.2685C111.824 92.1611 112.548 92.8847 113.44 92.8847Z" fill="#B9E4EA"/>
<path id="Vector_29" d="M117.294 80.8671C118.186 80.8671 118.91 80.1435 118.91 79.2509C118.91 78.3583 118.186 77.6348 117.294 77.6348C116.401 77.6348 115.678 78.3583 115.678 79.2509C115.678 80.1435 116.401 80.8671 117.294 80.8671Z" fill="#B9E4EA"/>
<path id="Vector_30" d="M78.9247 39.3583C79.8173 39.3583 80.5409 38.6347 80.5409 37.7421C80.5409 36.8496 79.8173 36.126 78.9247 36.126C78.0322 36.126 77.3086 36.8496 77.3086 37.7421C77.3086 38.6347 78.0322 39.3583 78.9247 39.3583Z" fill="#2F7889"/>
<path id="Vector_31" d="M69.2275 43.7382C70.1201 43.7382 70.8436 43.0146 70.8436 42.122C70.8436 41.2294 70.1201 40.5059 69.2275 40.5059C68.3349 40.5059 67.6113 41.2294 67.6113 42.122C67.6113 43.0146 68.3349 43.7382 69.2275 43.7382Z" fill="#2F7889"/>
<path id="Vector_32" d="M58.5087 46.702C59.4013 46.702 60.1249 45.9785 60.1249 45.0859C60.1249 44.1933 59.4013 43.4697 58.5087 43.4697C57.6162 43.4697 56.8926 44.1933 56.8926 45.0859C56.8926 45.9785 57.6162 46.702 58.5087 46.702Z" fill="#2F7889"/>
<path id="Vector_33" d="M47.5048 48.3182C48.3974 48.3182 49.121 47.5947 49.121 46.7021C49.121 45.8095 48.3974 45.0859 47.5048 45.0859C46.6122 45.0859 45.8887 45.8095 45.8887 46.7021C45.8887 47.5947 46.6122 48.3182 47.5048 48.3182Z" fill="#2F7889"/>
<path id="Vector_34" d="M47.1455 58.1991C48.038 58.1991 48.7616 57.4755 48.7616 56.583C48.7616 55.6904 48.038 54.9668 47.1455 54.9668C46.2529 54.9668 45.5293 55.6904 45.5293 56.583C45.5293 57.4755 46.2529 58.1991 47.1455 58.1991Z" fill="#2F7889"/>
<path id="Vector_35" d="M48.4521 69.7723C49.3447 69.7723 50.0682 69.0488 50.0682 68.1562C50.0682 67.2636 49.3447 66.54 48.4521 66.54C47.5595 66.54 46.8359 67.2636 46.8359 68.1562C46.8359 69.0488 47.5595 69.7723 48.4521 69.7723Z" fill="#2F7889"/>
<path id="Vector_36" d="M74.9228 121.648C75.8154 121.648 76.539 120.925 76.539 120.032C76.539 119.14 75.8154 118.416 74.9228 118.416C74.0302 118.416 73.3066 119.14 73.3066 120.032C73.3066 120.925 74.0302 121.648 74.9228 121.648Z" fill="#2F7889"/>
<path id="Vector_37" d="M66.2724 113.274C67.165 113.274 67.8886 112.551 67.8886 111.658C67.8886 110.766 67.165 110.042 66.2724 110.042C65.3798 110.042 64.6562 110.766 64.6562 111.658C64.6562 112.551 65.3798 113.274 66.2724 113.274Z" fill="#2F7889"/>
<path id="Vector_38" d="M59.5146 103.695C60.4072 103.695 61.1307 102.972 61.1307 102.079C61.1307 101.186 60.4072 100.463 59.5146 100.463C58.622 100.463 57.8984 101.186 57.8984 102.079C57.8984 102.972 58.622 103.695 59.5146 103.695Z" fill="#2F7889"/>
<path id="Vector_39" d="M54.5986 93.4198C55.4912 93.4198 56.2147 92.6962 56.2147 91.8037C56.2147 90.9111 55.4912 90.1875 54.5986 90.1875C53.706 90.1875 52.9824 90.9111 52.9824 91.8037C52.9824 92.6962 53.706 93.4198 54.5986 93.4198Z" fill="#2F7889"/>
<path id="Vector_40" d="M50.7568 81.4042C51.6494 81.4042 52.3729 80.6806 52.3729 79.788C52.3729 78.8955 51.6494 78.1719 50.7568 78.1719C49.8642 78.1719 49.1406 78.8955 49.1406 79.788C49.1406 80.6806 49.8642 81.4042 50.7568 81.4042Z" fill="#2F7889"/>
<path id="Vector_41" d="M78.5654 38.8222C79.458 38.8222 80.1815 38.0986 80.1815 37.206C80.1815 36.3134 79.458 35.5898 78.5654 35.5898C77.6728 35.5898 76.9492 36.3134 76.9492 37.206C76.9492 38.0986 77.6728 38.8222 78.5654 38.8222Z" fill="#EEEEEE"/>
<path id="Vector_42" d="M68.8583 43.202C69.7509 43.202 70.4745 42.4785 70.4745 41.5859C70.4745 40.6933 69.7509 39.9697 68.8583 39.9697C67.9658 39.9697 67.2422 40.6933 67.2422 41.5859C67.2422 42.4785 67.9658 43.202 68.8583 43.202Z" fill="#EEEEEE"/>
<path id="Vector_43" d="M58.1494 46.1659C59.0419 46.1659 59.7655 45.4423 59.7655 44.5497C59.7655 43.6572 59.0419 42.9336 58.1494 42.9336C57.2568 42.9336 56.5332 43.6572 56.5332 44.5497C56.5332 45.4423 57.2568 46.1659 58.1494 46.1659Z" fill="#EEEEEE"/>
<path id="Vector_44" d="M47.1455 47.7821C48.038 47.7821 48.7616 47.0585 48.7616 46.166C48.7616 45.2734 48.038 44.5498 47.1455 44.5498C46.2529 44.5498 45.5293 45.2734 45.5293 46.166C45.5293 47.0585 46.2529 47.7821 47.1455 47.7821Z" fill="#EEEEEE"/>
<path id="Vector_45" d="M46.7861 57.664C47.6787 57.664 48.4022 56.9404 48.4022 56.0478C48.4022 55.1552 47.6787 54.4316 46.7861 54.4316C45.8935 54.4316 45.1699 55.1552 45.1699 56.0478C45.1699 56.9404 45.8935 57.664 46.7861 57.664Z" fill="#EEEEEE"/>
<path id="Vector_46" d="M48.0927 69.2362C48.9853 69.2362 49.7089 68.5126 49.7089 67.6201C49.7089 66.7275 48.9853 66.0039 48.0927 66.0039C47.2001 66.0039 46.4766 66.7275 46.4766 67.6201C46.4766 68.5126 47.2001 69.2362 48.0927 69.2362Z" fill="#EEEEEE"/>
<path id="Vector_47" d="M74.5615 121.112C75.454 121.112 76.1776 120.389 76.1776 119.496C76.1776 118.603 75.454 117.88 74.5615 117.88C73.6689 117.88 72.9453 118.603 72.9453 119.496C72.9453 120.389 73.6689 121.112 74.5615 121.112Z" fill="#EEEEEE"/>
<path id="Vector_48" d="M65.9033 112.738C66.7958 112.738 67.5194 112.015 67.5194 111.122C67.5194 110.229 66.7958 109.506 65.9033 109.506C65.0107 109.506 64.2871 110.229 64.2871 111.122C64.2871 112.015 65.0107 112.738 65.9033 112.738Z" fill="#EEEEEE"/>
<path id="Vector_49" d="M59.1552 103.159C60.0478 103.159 60.7714 102.435 60.7714 101.543C60.7714 100.65 60.0478 99.9268 59.1552 99.9268C58.2626 99.9268 57.5391 100.65 57.5391 101.543C57.5391 102.435 58.2626 103.159 59.1552 103.159Z" fill="#EEEEEE"/>
<path id="Vector_50" d="M54.2392 92.8847C55.1318 92.8847 55.8554 92.1611 55.8554 91.2685C55.8554 90.3759 55.1318 89.6523 54.2392 89.6523C53.3466 89.6523 52.623 90.3759 52.623 91.2685C52.623 92.1611 53.3466 92.8847 54.2392 92.8847Z" fill="#EEEEEE"/>
<path id="Vector_51" d="M50.3876 80.8671C51.2802 80.8671 52.0038 80.1435 52.0038 79.2509C52.0038 78.3583 51.2802 77.6348 50.3876 77.6348C49.4951 77.6348 48.7715 78.3583 48.7715 79.2509C48.7715 80.1435 49.4951 80.8671 50.3876 80.8671Z" fill="#EEEEEE"/>
</g>
</g>
<defs>
<filter id="filter0_d_847_6496" x="0.78125" y="0" width="167" height="167" filterUnits="userSpaceOnUse" color-interpolation-filters="sRGB">
<feFlood flood-opacity="0" result="BackgroundImageFix"/>
<feColorMatrix in="SourceAlpha" type="matrix" values="0 0 0 0 0 0 0 0 0 0 0 0 0 0 0 0 0 0 127 0" result="hardAlpha"/>
<feOffset dy="4"/>
<feGaussianBlur stdDeviation="2"/>
<feComposite in2="hardAlpha" operator="out"/>
<feColorMatrix type="matrix" values="0 0 0 0 0.203922 0 0 0 0 0.658824 0 0 0 0 0.32549 0 0 0 0.4 0"/>
<feBlend mode="normal" in2="BackgroundImageFix" result="effect1_dropShadow_847_6496"/>
<feBlend mode="normal" in="SourceGraphic" in2="effect1_dropShadow_847_6496" result="shape"/>
</filter>
</defs>
</svg>
