<svg width="19" height="18" viewBox="0 0 19 18" fill="none" xmlns="http://www.w3.org/2000/svg">
<path d="M17.6846 8.7451C17.6846 8.17544 17.5847 7.51084 17.4848 7.03613H9.08984V10.3591H13.8869C13.6871 11.4035 13.0874 12.258 12.088 12.9226V15.1062H15.0862C16.7852 13.5872 17.6846 11.3085 17.6846 8.7451Z" fill="#4285F4"/>
<path d="M9.09085 17.1C11.4894 17.1 13.5881 16.3405 15.0872 15.0113L12.089 12.9225C11.2895 13.3973 10.2901 13.777 9.09085 13.777C6.79225 13.777 4.79346 12.258 4.09388 10.2642H1.0957V12.3529C2.49485 15.2012 5.59298 17.1 9.09085 17.1Z" fill="#34A853"/>
<path d="M4.09328 10.169C3.8934 9.69433 3.79346 9.12468 3.79346 8.55502C3.79346 7.98537 3.8934 7.41571 4.09328 6.941V4.75732H1.0951C0.495461 5.89663 0.0957031 7.22583 0.0957031 8.55502C0.0957031 9.88421 0.395521 11.2134 1.0951 12.3527L4.09328 10.169Z" fill="#FBBC05"/>
<path d="M9.09085 3.42818C10.3901 3.42818 11.5893 3.90289 12.4888 4.66243L15.0872 2.19393C13.5881 0.864736 11.4894 0.0102539 9.09085 0.0102539C5.59298 0.0102539 2.49485 1.9091 1.0957 4.75737L4.09388 6.94105C4.79346 4.94726 6.79225 3.42818 9.09085 3.42818Z" fill="#EA4335"/>
</svg>
