<svg xmlns="http://www.w3.org/2000/svg" width="43.23" height="38.42" viewBox="0 0 43.23 38.42" fill="none">
<path d="M367.057 72.5933H328.632C327.306 72.5933 326.23 73.6685 326.23 74.9949V108.617C326.23 109.943 327.306 111.018 328.632 111.018H367.057C368.383 111.018 369.459 109.943 369.459 108.617V74.9949C369.459 73.6685 368.383 72.5933 367.057 72.5933Z" stroke="#839BC5" stroke-width="4.80312" stroke-linecap="round" stroke-linejoin="round"/>
<path d="M326.23 103.814L338.791 89.1603C339.758 88.0319 341.507 88.044 342.459 89.1858L350.964 99.392C351.868 100.477 353.509 100.551 354.507 99.5527L357.955 96.1048C358.967 95.0927 360.634 95.1851 361.529 96.3028L369.459 106.215" stroke="#839BC5" stroke-width="4.80312" stroke-linecap="round" stroke-linejoin="round"/>
<path d="M352.648 84.6011C352.648 83.2748 353.724 82.1996 355.05 82.1996C356.376 82.1996 357.452 83.2748 357.452 84.6011C357.452 85.9275 356.376 87.0027 355.05 87.0027C353.724 87.0027 352.648 85.9275 352.648 84.6011Z" stroke="#839BC5" stroke-width="4.80312" stroke-linecap="round" stroke-linejoin="round"/>
</svg>