<svg width="34" height="29" viewBox="0 0 34 29" fill="none" xmlns="http://www.w3.org/2000/svg">
<path d="M7.66528 1.74853C6.55638 2.85743 6.45557 3.6303 7.16123 5.31045L7.66528 6.48655H4.5402C1.04548 6.48655 0.978279 6.52015 0.978279 8.83876C0.978279 11.2246 0.944676 11.191 5.38027 11.191H9.37903V8.83876C9.37903 6.95699 9.47984 6.48655 9.88307 6.48655C10.3199 6.48655 10.3871 7.69626 10.3871 15.3913V24.2961H12.2353H14.0834V15.3913C14.0834 7.69626 14.1507 6.48655 14.5875 6.48655C14.9907 6.48655 15.0915 6.95699 15.0915 8.83876V11.2246L19.2247 11.1238L23.3243 11.023V8.83876V6.65457L20.1656 6.55376C17.1077 6.45295 17.0405 6.45295 17.2421 5.71368C17.9142 3.49588 17.847 2.92463 16.9397 1.84934C16.234 1.00926 15.7972 0.774042 14.7891 0.774042C14.1171 0.774042 13.2434 0.97566 12.8737 1.24448C12.3025 1.64772 12.1345 1.64772 11.5632 1.24448C10.4543 0.438011 8.77417 0.673233 7.66528 1.74853ZM11.0592 2.75662C11.2272 3.12625 11.3952 3.83191 11.3952 4.30236C11.3952 5.10883 11.2944 5.17603 10.1855 5.07523C8.53895 4.94081 7.79969 3.93272 8.57256 2.85743C9.21101 1.95015 10.5887 1.88294 11.0592 2.75662ZM15.6292 2.38699C17.0069 3.32787 16.066 5.14243 14.1843 5.14243C13.2098 5.14243 13.0754 5.04162 13.0754 4.26875C13.0754 2.5214 14.3859 1.54691 15.6292 2.38699Z" fill="#919AAB"/>
<path d="M2.32227 17.6091C2.32227 20.667 2.45668 23.2881 2.6583 23.6577C2.96072 24.2289 3.39756 24.2961 6.18661 24.2961H9.3789V18.2476V12.1991H5.85058H2.32227V17.6091Z" fill="#919AAB"/>
<path d="M15.0916 18.2476V24.2961H17.3766H19.6952L19.3255 22.616C18.9223 20.5326 19.6616 17.8108 21.1401 16.2314C21.9466 15.3577 22.1482 14.8537 22.1482 13.6776V12.1991H18.6199H15.0916V18.2476Z" fill="#919AAB"/>
<path d="M23.7946 15.4922C20.636 17.1388 19.3254 20.9359 20.7704 24.1282C22.0809 27.018 25.5756 28.799 28.4318 28.0261C33.4723 26.6484 35.3877 21.0031 32.1282 17.0716C30.0112 14.4841 26.8525 13.8793 23.7946 15.4922ZM27.827 18.6173C28.2974 19.491 28.7343 19.7934 29.7088 20.0286C30.448 20.163 31.0865 20.3646 31.1873 20.4319C31.2545 20.5327 30.8849 21.1039 30.3136 21.7088C29.3391 22.6833 29.2719 22.8849 29.5407 24.229C29.776 25.5059 29.7088 25.6403 29.2383 25.4387C26.9869 24.4978 26.8861 24.4978 25.6764 25.0691C25.0043 25.3715 24.3995 25.6403 24.2987 25.6403C24.1979 25.6403 24.2315 24.9347 24.3659 24.0946C24.5675 22.6833 24.5003 22.4816 23.5258 21.4735L22.4505 20.3646L23.2234 20.1294C23.6602 20.0286 24.3323 19.9278 24.7355 19.9278C25.2732 19.9278 25.71 19.5246 26.1804 18.5501C26.9869 17.0379 26.9869 17.0379 27.827 18.6173Z" fill="#919AAB"/>
<rect x="19.5134" y="0.763916" width="8.2821" height="8.2821" rx="0.900057" fill="#D24A46"/>
</svg>
