<svg width="143" height="32" viewBox="0 0 143 32" fill="none" xmlns="http://www.w3.org/2000/svg">
<path d="M34.9556 20.7056H37.7972C38.0029 22.5443 39.7901 23.753 42.2331 23.753C44.5733 23.753 46.2577 22.5443 46.2577 20.8856C46.2577 19.4455 45.2419 18.5841 42.8375 17.9926L40.433 17.414C37.0257 16.5911 35.4442 14.9967 35.4442 12.4123C35.4442 9.21064 38.2343 7.01194 42.1946 7.01194C46.1162 7.01194 48.8035 9.21064 48.8935 12.4123H46.0905C45.9234 10.5607 44.3933 9.44208 42.156 9.44208C39.9187 9.44208 38.3886 10.5736 38.3886 12.2194C38.3886 13.5309 39.3658 14.3024 41.7574 14.8938L43.8018 15.3953C47.6078 16.2954 49.1893 17.8255 49.1893 20.5385C49.1893 24.0101 46.4248 26.1831 42.0274 26.1831C37.9129 26.1831 35.1356 24.0615 34.9556 20.7056ZM52.4639 25.8745V7.32053H55.2412V25.8745H52.4639ZM59.1074 25.8745V12.348H61.8847V25.8745H59.1074ZM60.496 10.3679C59.6088 10.3679 58.8888 9.66067 58.8888 8.78633C58.8888 7.89913 59.6088 7.19195 60.496 7.19195C61.3961 7.19195 62.1161 7.89913 62.1161 8.78633C62.1161 9.66067 61.3961 10.3679 60.496 10.3679ZM77.2586 17.0025H74.6099C74.327 15.5625 73.247 14.4181 71.434 14.4181C69.2867 14.4181 67.8724 16.2054 67.8724 19.1112C67.8724 22.0814 69.2996 23.8044 71.4597 23.8044C73.1698 23.8044 74.2885 22.8658 74.6099 21.2971H77.2844C76.9886 24.1773 74.6871 26.1317 71.434 26.1317C67.5638 26.1317 65.0436 23.4829 65.0436 19.1112C65.0436 14.8167 67.5638 12.1037 71.4083 12.1037C74.8928 12.1037 77.0143 14.341 77.2586 17.0025ZM85.8308 14.341C83.8892 14.341 82.5263 15.8196 82.3848 17.864H89.1481C89.0838 15.7939 87.7723 14.341 85.8308 14.341ZM89.1352 21.9014H91.7711C91.3854 24.3701 89.0452 26.1317 85.9465 26.1317C81.9734 26.1317 79.569 23.4444 79.569 19.1755C79.569 14.9324 82.012 12.1037 85.8308 12.1037C89.5853 12.1037 91.9254 14.7524 91.9254 18.8541V19.8056H82.372V19.9727C82.372 22.3257 83.7864 23.8815 86.0108 23.8815C87.5923 23.8815 88.7624 23.0843 89.1352 21.9014ZM100.086 26.106C96.6659 26.106 94.4029 23.3801 94.4029 19.1112C94.4029 14.8424 96.6659 12.1294 100.06 12.1294C102.002 12.1294 103.545 13.1066 104.303 14.5981H104.355V7.32053H107.145V25.8745H104.445V23.5729H104.393C103.596 25.1159 102.053 26.106 100.086 26.106ZM100.819 14.4695C98.6203 14.4695 97.2445 16.2696 97.2445 19.1112C97.2445 21.9657 98.6203 23.753 100.819 23.753C102.953 23.753 104.381 21.94 104.381 19.1112C104.381 16.3082 102.953 14.4695 100.819 14.4695ZM118.7 25.8745H111.256V7.32053H118.662C121.953 7.32053 124.113 9.14635 124.113 11.9494C124.113 13.9166 122.66 15.6782 120.809 15.9868V16.0896C123.329 16.3725 125.026 18.1598 125.026 20.6285C125.026 23.8944 122.648 25.8745 118.7 25.8745ZM114.136 9.67353V15.2153H117.363C119.857 15.2153 121.233 14.1867 121.233 12.348C121.233 10.625 120.05 9.67353 117.967 9.67353H114.136ZM114.136 23.5215H118.109C120.706 23.5215 122.082 22.4543 122.082 20.4485C122.082 18.4426 120.668 17.414 117.942 17.414H114.136V23.5215ZM128.185 25.8745V12.348H130.963V25.8745H128.185ZM129.574 10.3679C128.687 10.3679 127.967 9.66067 127.967 8.78633C127.967 7.89913 128.687 7.19195 129.574 7.19195C130.474 7.19195 131.194 7.89913 131.194 8.78633C131.194 9.66067 130.474 10.3679 129.574 10.3679ZM135.536 9.14635H138.326V12.348H140.898V14.5467H138.326V22.0043C138.326 23.1743 138.84 23.7015 139.972 23.7015C140.255 23.7015 140.705 23.6758 140.885 23.6372V25.8359C140.576 25.9131 139.959 25.9645 139.342 25.9645C136.603 25.9645 135.536 24.923 135.536 22.3129V14.5467H133.569V12.348H135.536V9.14635Z" fill="#3D190C"/>
<path fill-rule="evenodd" clip-rule="evenodd" d="M2.35427 4.64355C1.16515 4.64355 0.201172 5.60753 0.201172 6.79666V28.0832C0.201172 29.2723 1.16515 30.2363 2.35427 30.2363H23.6408C24.8299 30.2363 25.7939 29.2723 25.7939 28.0832V13.1744H17.2637V4.64355H2.35427ZM7.633 7.09277C7.20789 7.09277 6.86328 7.43739 6.86328 7.86249C6.86328 8.28759 7.20789 8.6322 7.63299 8.6322H15.3337C15.7588 8.6322 16.1035 8.28759 16.1035 7.86249C16.1035 7.43739 15.7588 7.09277 15.3337 7.09277H7.633ZM2.24043 11.7349C2.24043 11.3098 2.58504 10.9652 3.01014 10.9652H11.5744C11.9995 10.9652 12.3441 11.3098 12.3441 11.7349C12.3441 12.16 11.9995 12.5047 11.5744 12.5047H3.01014C2.58504 12.5047 2.24043 12.16 2.24043 11.7349ZM4.94933 14.8377C4.52423 14.8377 4.17962 15.1823 4.17962 15.6074C4.17962 16.0325 4.52423 16.3771 4.94933 16.3771H17.6422C18.0673 16.3771 18.4119 16.0325 18.4119 15.6074C18.4119 15.1823 18.0673 14.8377 17.6422 14.8377H4.94933ZM4.0293 19.4797C4.0293 19.0546 4.37391 18.71 4.79901 18.71H19.3413C19.7664 18.71 20.111 19.0546 20.111 19.4797C20.111 19.9048 19.7664 20.2494 19.3413 20.2494H4.79901C4.37391 20.2494 4.0293 19.9048 4.0293 19.4797ZM9.59979 22.5825C9.17469 22.5825 8.83008 22.9271 8.83008 23.3522C8.83008 23.7773 9.17469 24.1219 9.59979 24.1219H17.7785C18.2036 24.1219 18.5482 23.7773 18.5482 23.3522C18.5482 22.9271 18.2036 22.5825 17.7785 22.5825H9.59979ZM2.24043 27.2249C2.24043 26.7998 2.58504 26.4552 3.01014 26.4552H14.0276C14.4527 26.4552 14.7973 26.7998 14.7973 27.2249C14.7973 27.65 14.4527 27.9946 14.0276 27.9946H3.01014C2.58504 27.9946 2.24043 27.65 2.24043 27.2249Z" fill="#D24A46"/>
<path fill-rule="evenodd" clip-rule="evenodd" d="M18.9688 3.70695C18.9688 3.31058 19.2901 2.98926 19.6864 2.98926H26.7819C27.1782 2.98926 27.4996 3.31058 27.4996 3.70695V10.8024C27.4996 11.1988 27.1782 11.5201 26.7819 11.5201H18.9688V3.70695ZM19.7695 5.65187C19.7695 5.86787 19.9446 6.04297 20.1606 6.04297H22.4103C22.6263 6.04297 22.8014 5.86787 22.8014 5.65187C22.8014 5.43587 22.6263 5.26077 22.4103 5.26077H20.1606C19.9446 5.26077 19.7695 5.43587 19.7695 5.65187ZM20.1606 4.4873C19.9446 4.4873 19.7695 4.3122 19.7695 4.0962C19.7695 3.88021 19.9446 3.7051 20.1606 3.7051H22.3047C22.5207 3.7051 22.6958 3.88021 22.6958 4.0962C22.6958 4.3122 22.5207 4.4873 22.3047 4.4873H20.1606ZM19.7695 7.20704C19.7695 7.42304 19.9446 7.59814 20.1606 7.59814H25.1931C25.4091 7.59814 25.5842 7.42304 25.5842 7.20704C25.5842 6.99104 25.4091 6.81594 25.1931 6.81594H20.1606C19.9446 6.81594 19.7695 6.99104 19.7695 7.20704ZM20.1606 9.15381C19.9446 9.15381 19.7695 8.97871 19.7695 8.76271C19.7695 8.54671 19.9446 8.37161 20.1606 8.37161H21.9537C22.1697 8.37161 22.3448 8.54671 22.3448 8.76271C22.3448 8.97871 22.1697 9.15381 21.9537 9.15381H20.1606ZM23.5935 8.76276C23.5935 8.97876 23.7686 9.15386 23.9846 9.15386H25.7777C25.9937 9.15386 26.1688 8.97876 26.1688 8.76276C26.1688 8.54676 25.9937 8.37166 25.7777 8.37166H23.9846C23.7686 8.37166 23.5935 8.54676 23.5935 8.76276ZM20.1606 10.7095C19.9446 10.7095 19.7695 10.5344 19.7695 10.3184C19.7695 10.1024 19.9446 9.92727 20.1606 9.92727H25.0477C25.2637 9.92727 25.4388 10.1024 25.4388 10.3184C25.4388 10.5344 25.2637 10.7095 25.0477 10.7095H20.1606Z" fill="#D24A46"/>
</svg>
