<svg width="26" height="30" viewBox="0 0 26 30" fill="none" xmlns="http://www.w3.org/2000/svg">
<g filter="url(#filter0_d_847_5879)">
<path d="M14.6475 10.7607C14.4475 10.7407 14.2475 10.7207 14.0475 10.6807C12.8075 10.4607 11.6475 9.90074 10.7075 9.04074C7.96746 6.93074 4.69746 4.27074 3.02746 1.26074H2.67746C1.22746 1.26074 0.31746 2.82074 1.02746 4.08074C2.34746 6.41074 4.20746 8.39074 6.44746 9.85074C7.20746 10.4407 10.9935 12.7197 11.9535 12.7197L14.6475 10.7607Z" fill="url(#paint0_radial_847_5879)"/>
<path d="M14.6475 10.7607C14.4475 10.7407 14.2475 10.7207 14.0475 10.6807C12.8075 10.4607 11.6475 9.90074 10.7075 9.04074C7.96746 6.93074 4.69746 4.27074 3.02746 1.26074H2.67746C1.22746 1.26074 0.31746 2.82074 1.02746 4.08074C2.34746 6.41074 4.20746 8.39074 6.44746 9.85074C7.20746 10.4407 10.9935 12.7197 11.9535 12.7197L14.6475 10.7607Z" fill="url(#paint1_radial_847_5879)"/>
</g>
<path d="M13.4783 6.47098L13.6543 7.70998L12.0913 8.90498L7.07031 1.25098H9.24831C9.91831 1.25098 10.5383 1.60098 10.8683 2.18098L13.4783 6.47098Z" fill="url(#paint2_linear_847_5879)"/>
<path d="M16.5548 7.75674L14.8848 10.7707H17.5278C18.4978 10.7707 16.7678 11.9967 17.5278 11.4067C19.9848 10.3767 24.2978 6.42074 25.6078 4.09074C26.3278 2.82074 25.4078 1.26074 23.9678 1.26074H23.6178C21.4258 3.55074 18.8928 5.84574 16.5548 7.75674Z" fill="url(#paint3_linear_847_5879)"/>
<path d="M13.2883 10.73C13.1913 10.742 13.0943 10.751 12.9983 10.761L12.7983 11.001L13.0083 10.674C11.7767 10.4506 10.633 9.8846 9.70831 9.04098C6.96831 6.93098 4.49031 4.26098 2.82031 1.25098H7.20831L13.2883 10.73Z" fill="url(#paint4_linear_847_5879)"/>
<path d="M13.2883 10.73C13.1913 10.742 13.0943 10.751 12.9983 10.761L12.7983 11.001L13.0083 10.674C11.7767 10.4506 10.633 9.8846 9.70831 9.04098C6.96831 6.93098 4.49031 4.26098 2.82031 1.25098H7.20831L13.2883 10.73Z" fill="url(#paint5_linear_847_5879)"/>
<path d="M13.8809 9.31172L14.0609 10.5817C15.1326 10.3153 16.1211 9.78606 16.9369 9.04172C19.6769 6.93172 21.9469 4.27172 23.6169 1.26172H19.0469L13.8809 9.31172Z" fill="url(#paint6_linear_847_5879)"/>
<path d="M13.8809 9.31172L14.0609 10.5817C15.1326 10.3153 16.1211 9.78606 16.9369 9.04172C19.6769 6.93172 21.9469 4.27172 23.6169 1.26172H19.0469L13.8809 9.31172Z" fill="url(#paint7_linear_847_5879)"/>
<path d="M13.6925 10.7607H13.6465L13.8465 11.0007L13.6925 10.7607Z" fill="url(#paint8_linear_847_5879)"/>
<path d="M13.6925 10.7607H13.6465L13.8465 11.0007L13.6925 10.7607Z" fill="url(#paint9_linear_847_5879)"/>
<path d="M19.4269 1.26074H17.3869C16.7169 1.26074 16.1069 1.61074 15.7669 2.19074L10.5469 10.7707H13.3269L19.4269 1.26074Z" fill="url(#paint10_linear_847_5879)"/>
<path d="M19.4269 1.26074H17.3869C16.7169 1.26074 16.1069 1.61074 15.7669 2.19074L10.5469 10.7707H13.3269L19.4269 1.26074Z" fill="url(#paint11_linear_847_5879)"/>
<path d="M13.3095 29.1952C18.8545 29.1952 23.3495 24.5882 23.3495 18.9052C23.3495 13.2222 18.8545 8.61523 13.3095 8.61523C7.76453 8.61523 3.26953 13.2222 3.26953 18.9052C3.26953 24.5882 7.76453 29.1952 13.3095 29.1952Z" fill="url(#paint12_linear_847_5879)"/>
<path d="M13.3095 29.1952C18.8545 29.1952 23.3495 24.5882 23.3495 18.9052C23.3495 13.2222 18.8545 8.61523 13.3095 8.61523C7.76453 8.61523 3.26953 13.2222 3.26953 18.9052C3.26953 24.5882 7.76453 29.1952 13.3095 29.1952Z" fill="url(#paint13_linear_847_5879)"/>
<path d="M13.3101 27.3448C17.8551 27.3448 21.5401 23.5658 21.5401 18.9048C21.5401 14.2438 17.8551 10.4648 13.3101 10.4648C8.76508 10.4648 5.08008 14.2438 5.08008 18.9048C5.08008 23.5668 8.76508 27.3448 13.3101 27.3448Z" fill="url(#paint14_linear_847_5879)"/>
<path d="M13.3101 27.3448C17.8551 27.3448 21.5401 23.5658 21.5401 18.9048C21.5401 14.2438 17.8551 10.4648 13.3101 10.4648C8.76508 10.4648 5.08008 14.2438 5.08008 18.9048C5.08008 23.5668 8.76508 27.3448 13.3101 27.3448Z" fill="url(#paint15_radial_847_5879)"/>
<path d="M13.3101 27.3448C17.8551 27.3448 21.5401 23.5658 21.5401 18.9048C21.5401 14.2438 17.8551 10.4648 13.3101 10.4648C8.76508 10.4648 5.08008 14.2438 5.08008 18.9048C5.08008 23.5668 8.76508 27.3448 13.3101 27.3448Z" fill="url(#paint16_radial_847_5879)"/>
<path d="M13.3203 27.9546C10.9603 27.9546 8.74033 27.0146 7.08033 25.3046C5.40963 23.5944 4.47923 21.2953 4.49033 18.9046C4.49033 16.4846 5.41033 14.2146 7.08033 12.5046C7.89062 11.6672 8.86105 11.0013 9.93389 10.5465C11.0067 10.0918 12.1601 9.85742 13.3253 9.85742C14.4906 9.85742 15.6439 10.0918 16.7168 10.5465C17.7896 11.0013 18.76 11.6672 19.5703 12.5046C23.0103 16.0346 23.0103 21.7746 19.5703 25.3046C17.8903 27.0146 15.6703 27.9546 13.3203 27.9546ZM13.3103 11.0846C11.3603 11.0846 9.40033 11.8446 7.92033 13.3746C6.48063 14.8542 5.67978 16.8401 5.69033 18.9046C5.69033 20.9946 6.48033 22.9546 7.92033 24.4346C8.61839 25.1594 9.45559 25.7358 10.3818 26.1293C11.3079 26.5228 12.304 26.7253 13.3103 26.7246C15.3503 26.7246 17.2603 25.9146 18.7003 24.4346C21.6703 21.3846 21.6703 16.4246 18.7003 13.3746C18.0028 12.649 17.1657 12.0721 16.2394 11.6785C15.3131 11.285 14.3168 11.0829 13.3103 11.0846Z" fill="url(#paint17_linear_847_5879)"/>
<g filter="url(#filter1_dd_847_5879)">
<path d="M13.9186 14.8548L14.7486 16.5748C14.8486 16.7748 15.0386 16.9248 15.2586 16.9548L17.1086 17.2348C17.6586 17.3148 17.8886 18.0148 17.4787 18.4148L16.1986 19.6948C16.0086 19.8848 15.9486 20.1648 16.0286 20.4248L16.6186 22.1348C16.8186 22.7048 16.2586 23.2448 15.7086 23.0048L13.5687 22.0448C13.4841 22.0054 13.392 21.9849 13.2986 21.9849C13.2053 21.9849 13.1132 22.0054 13.0286 22.0448L10.8886 23.0048C10.3486 23.2448 9.77865 22.7048 9.97865 22.1348L10.5686 20.4248C10.6586 20.1648 10.5886 19.8848 10.3986 19.6948L9.11865 18.4148C8.71865 18.0148 8.93865 17.3148 9.48865 17.2348L11.3386 16.9548C11.5587 16.9248 11.7486 16.7848 11.8486 16.5748L12.6786 14.8548C12.9486 14.3348 13.6686 14.3348 13.9186 14.8548Z" fill="url(#paint18_linear_847_5879)"/>
<path d="M13.9186 14.8548L14.7486 16.5748C14.8486 16.7748 15.0386 16.9248 15.2586 16.9548L17.1086 17.2348C17.6586 17.3148 17.8886 18.0148 17.4787 18.4148L16.1986 19.6948C16.0086 19.8848 15.9486 20.1648 16.0286 20.4248L16.6186 22.1348C16.8186 22.7048 16.2586 23.2448 15.7086 23.0048L13.5687 22.0448C13.4841 22.0054 13.392 21.9849 13.2986 21.9849C13.2053 21.9849 13.1132 22.0054 13.0286 22.0448L10.8886 23.0048C10.3486 23.2448 9.77865 22.7048 9.97865 22.1348L10.5686 20.4248C10.6586 20.1648 10.5886 19.8848 10.3986 19.6948L9.11865 18.4148C8.71865 18.0148 8.93865 17.3148 9.48865 17.2348L11.3386 16.9548C11.5587 16.9248 11.7486 16.7848 11.8486 16.5748L12.6786 14.8548C12.9486 14.3348 13.6686 14.3348 13.9186 14.8548Z" fill="url(#paint19_radial_847_5879)"/>
</g>
<defs>
<filter id="filter0_d_847_5879" x="0.43125" y="0.610742" width="14.8652" height="12.459" filterUnits="userSpaceOnUse" color-interpolation-filters="sRGB">
<feFlood flood-opacity="0" result="BackgroundImageFix"/>
<feColorMatrix in="SourceAlpha" type="matrix" values="0 0 0 0 0 0 0 0 0 0 0 0 0 0 0 0 0 0 127 0" result="hardAlpha"/>
<feOffset dx="0.15" dy="-0.15"/>
<feGaussianBlur stdDeviation="0.25"/>
<feComposite in2="hardAlpha" operator="out"/>
<feColorMatrix type="matrix" values="0 0 0 0 0.254902 0 0 0 0 0.329412 0 0 0 0 0.729412 0 0 0 1 0"/>
<feBlend mode="normal" in2="BackgroundImageFix" result="effect1_dropShadow_847_5879"/>
<feBlend mode="normal" in="SourceGraphic" in2="effect1_dropShadow_847_5879" result="shape"/>
</filter>
<filter id="filter1_dd_847_5879" x="7.86406" y="13.4148" width="10.2734" height="10.0986" filterUnits="userSpaceOnUse" color-interpolation-filters="sRGB">
<feFlood flood-opacity="0" result="BackgroundImageFix"/>
<feColorMatrix in="SourceAlpha" type="matrix" values="0 0 0 0 0 0 0 0 0 0 0 0 0 0 0 0 0 0 127 0" result="hardAlpha"/>
<feOffset dx="-0.3" dy="-0.3"/>
<feGaussianBlur stdDeviation="0.375"/>
<feComposite in2="hardAlpha" operator="out"/>
<feColorMatrix type="matrix" values="0 0 0 0 0.290196 0 0 0 0 0.14902 0 0 0 0 0.14902 0 0 0 1 0"/>
<feBlend mode="normal" in2="BackgroundImageFix" result="effect1_dropShadow_847_5879"/>
<feColorMatrix in="SourceAlpha" type="matrix" values="0 0 0 0 0 0 0 0 0 0 0 0 0 0 0 0 0 0 127 0" result="hardAlpha"/>
<feOffset dx="0.2" dy="-0.2"/>
<feGaussianBlur stdDeviation="0.075"/>
<feComposite in2="hardAlpha" operator="out"/>
<feColorMatrix type="matrix" values="0 0 0 0 0.517647 0 0 0 0 0.372549 0 0 0 0 0.34902 0 0 0 1 0"/>
<feBlend mode="normal" in2="effect1_dropShadow_847_5879" result="effect2_dropShadow_847_5879"/>
<feBlend mode="normal" in="SourceGraphic" in2="effect2_dropShadow_847_5879" result="shape"/>
</filter>
<radialGradient id="paint0_radial_847_5879" cx="0" cy="0" r="1" gradientUnits="userSpaceOnUse" gradientTransform="translate(7.71416 4.96649) rotate(124.323) scale(6.48778 12.8773)">
<stop offset="0.361" stop-color="#3FA0F7"/>
<stop offset="1" stop-color="#2F60C2"/>
</radialGradient>
<radialGradient id="paint1_radial_847_5879" cx="0" cy="0" r="1" gradientUnits="userSpaceOnUse" gradientTransform="translate(8.00646 11.3687) rotate(-90) scale(3.22394 3.90129)">
<stop stop-color="#3258BF"/>
<stop offset="1" stop-color="#3258BF" stop-opacity="0"/>
</radialGradient>
<linearGradient id="paint2_linear_847_5879" x1="8.59731" y1="1.25098" x2="13.6543" y2="8.90498" gradientUnits="userSpaceOnUse">
<stop stop-color="#F53F56"/>
<stop offset="1" stop-color="#EA3586"/>
</linearGradient>
<linearGradient id="paint3_linear_847_5879" x1="22.9338" y1="2.97474" x2="22.4208" y2="9.48774" gradientUnits="userSpaceOnUse">
<stop stop-color="#FD4058"/>
<stop offset="1" stop-color="#F62E9E"/>
</linearGradient>
<linearGradient id="paint4_linear_847_5879" x1="10.5803" y1="2.09698" x2="5.03731" y2="10.801" gradientUnits="userSpaceOnUse">
<stop stop-color="#E3D4F3"/>
<stop offset="1" stop-color="#E3C2F5"/>
</linearGradient>
<linearGradient id="paint5_linear_847_5879" x1="11.1833" y1="0.911977" x2="11.1833" y2="2.57098" gradientUnits="userSpaceOnUse">
<stop stop-color="#D3CCD9"/>
<stop offset="1" stop-color="#D3CCD9" stop-opacity="0"/>
</linearGradient>
<linearGradient id="paint6_linear_847_5879" x1="20.7619" y1="2.10572" x2="15.0379" y2="10.3557" gradientUnits="userSpaceOnUse">
<stop stop-color="#E3D4F3"/>
<stop offset="1" stop-color="#E3C2F5"/>
</linearGradient>
<linearGradient id="paint7_linear_847_5879" x1="21.3139" y1="0.921719" x2="21.3139" y2="2.57972" gradientUnits="userSpaceOnUse">
<stop stop-color="#D3CCD9"/>
<stop offset="1" stop-color="#D3CCD9" stop-opacity="0"/>
</linearGradient>
<linearGradient id="paint8_linear_847_5879" x1="20.7615" y1="2.10575" x2="15.0375" y2="10.3558" gradientUnits="userSpaceOnUse">
<stop stop-color="#E3D4F3"/>
<stop offset="1" stop-color="#E3C2F5"/>
</linearGradient>
<linearGradient id="paint9_linear_847_5879" x1="21.3135" y1="0.921752" x2="21.3135" y2="2.57975" gradientUnits="userSpaceOnUse">
<stop stop-color="#D3CCD9"/>
<stop offset="1" stop-color="#D3CCD9" stop-opacity="0"/>
</linearGradient>
<linearGradient id="paint10_linear_847_5879" x1="18.2019" y1="1.81374" x2="13.5769" y2="9.93874" gradientUnits="userSpaceOnUse">
<stop stop-color="#3EA0F4"/>
<stop offset="1" stop-color="#437EE0"/>
</linearGradient>
<linearGradient id="paint11_linear_847_5879" x1="12.3649" y1="6.41874" x2="13.3189" y2="7.05474" gradientUnits="userSpaceOnUse">
<stop stop-color="#6C65C0"/>
<stop offset="1" stop-color="#6C65C0" stop-opacity="0"/>
</linearGradient>
<linearGradient id="paint12_linear_847_5879" x1="18.6765" y1="15.2582" x2="10.6135" y2="28.8832" gradientUnits="userSpaceOnUse">
<stop stop-color="#F4C654"/>
<stop offset="1" stop-color="#DC9729"/>
</linearGradient>
<linearGradient id="paint13_linear_847_5879" x1="9.80153" y1="29.6952" x2="12.1765" y2="16.2582" gradientUnits="userSpaceOnUse">
<stop stop-color="#FA8547"/>
<stop offset="1" stop-color="#FA8547" stop-opacity="0"/>
</linearGradient>
<linearGradient id="paint14_linear_847_5879" x1="9.50508" y1="17.8348" x2="21.7821" y2="17.8348" gradientUnits="userSpaceOnUse">
<stop stop-color="#FAA945"/>
<stop offset="1" stop-color="#EC9936"/>
</linearGradient>
<radialGradient id="paint15_radial_847_5879" cx="0" cy="0" r="1" gradientUnits="userSpaceOnUse" gradientTransform="translate(16.5011 18.9048) rotate(180) scale(10.9797 9.59463)">
<stop offset="0.844" stop-color="#F7B44D" stop-opacity="0"/>
<stop offset="1" stop-color="#F7B44D"/>
</radialGradient>
<radialGradient id="paint16_radial_847_5879" cx="0" cy="0" r="1" gradientUnits="userSpaceOnUse" gradientTransform="translate(11.1731 18.9048) scale(10.3667 9.34393)">
<stop offset="0.826" stop-color="#D2801F" stop-opacity="0"/>
<stop offset="1" stop-color="#D2801F"/>
</radialGradient>
<linearGradient id="paint17_linear_847_5879" x1="21.3653" y1="17.3246" x2="13.3203" y2="17.3246" gradientUnits="userSpaceOnUse">
<stop stop-color="#F9A842"/>
<stop offset="1" stop-color="#FAA742"/>
</linearGradient>
<linearGradient id="paint18_linear_847_5879" x1="12.3536" y1="18.1758" x2="15.6716" y2="23.3428" gradientUnits="userSpaceOnUse">
<stop stop-color="#864B60"/>
<stop offset="1" stop-color="#5D3247"/>
</linearGradient>
<radialGradient id="paint19_radial_847_5879" cx="0" cy="0" r="1" gradientUnits="userSpaceOnUse" gradientTransform="translate(15.6761 16.0082) rotate(130.746) scale(2.68113 3.65655)">
<stop offset="0.201" stop-color="#602543"/>
<stop offset="1" stop-color="#602543" stop-opacity="0"/>
</radialGradient>
</defs>
</svg>
