<svg width="44" height="43" viewBox="0 0 44 43" fill="none" xmlns="http://www.w3.org/2000/svg">
<circle cx="22.2812" cy="21.5" r="21.5" fill="#7544EB"/>
<path d="M26.8194 10.645C27.1958 10.2611 27.6446 9.95561 28.1398 9.74618C28.6349 9.53674 29.1667 9.42753 29.7044 9.42485C30.242 9.42218 30.7749 9.5261 31.2721 9.7306C31.7693 9.93511 32.2211 10.2361 32.6013 10.6163C32.9815 10.9965 33.2826 11.4482 33.4872 11.9454C33.6917 12.4426 33.7957 12.9755 33.7931 13.5131C33.7904 14.0508 33.6813 14.5826 33.4719 15.0778C33.2625 15.573 32.957 16.0218 32.5732 16.3982L31.2749 17.6988L25.52 11.9439L26.8188 10.6445L26.8194 10.645ZM24.4791 12.9865L12.5835 24.8833C12.1347 25.332 11.8149 25.8932 11.6575 26.5079L10.2279 32.095C10.1963 32.2187 10.1975 32.3486 10.2313 32.4717C10.2652 32.5949 10.3304 32.7072 10.4207 32.7975C10.511 32.8878 10.6233 32.953 10.7465 32.9869C10.8696 33.0207 10.9995 33.0219 11.1232 32.9903L16.7115 31.5625C17.3267 31.4053 17.8882 31.0855 18.3372 30.6365L30.2329 18.7391L24.4791 12.9865Z" fill="white"/>
</svg>
