<svg width="25" height="25" viewBox="0 0 25 25" fill="none" xmlns="http://www.w3.org/2000/svg">
<path d="M2.28289 22.5137L2.28294 20.9899C2.28294 20.393 2.73116 20.2057 2.90989 20.1231L9.50408 17.0113C9.9767 16.7943 10.3029 16.3468 10.3664 15.8306C10.3978 15.5767 10.3637 15.319 10.2673 15.082C10.171 14.8449 10.0156 14.6365 9.81603 14.4765C8.25617 13.2241 7.52936 10.4711 7.52936 9.00512V5.25283C7.52936 3.68396 10.2605 1.50204 12.7882 1.50204C15.338 1.50204 18.0425 3.6498 18.0425 5.25283V9.00512C18.0425 10.4493 17.4419 13.2124 15.831 14.4809C15.6289 14.64 15.4711 14.8482 15.3727 15.0857C15.2742 15.3232 15.2384 15.582 15.2686 15.8373C15.3302 16.3573 15.6579 16.8067 16.1332 17.0251L19.9399 18.8377L20.8349 17.5691L16.7601 15.6605C18.8403 14.0233 19.5442 10.8071 19.5442 9.00472V5.25243C19.5442 2.76717 16.1039 0 12.7882 0C9.47252 0 6.0277 2.7672 6.0277 5.25243V9.00472C6.0277 10.6442 6.7759 13.9613 8.87598 15.647L2.28179 18.7595C2.28179 18.7595 0.78125 19.4282 0.78125 20.2605V22.5137C0.78125 23.343 1.45325 24.0146 2.28177 24.0146H17.2917L16.0716 22.5133L2.28289 22.5137ZM24.5429 16.9704C24.2167 16.7143 23.7444 16.7725 23.4891 17.0988L20.2782 21.9957L18.2824 19.9996C17.9892 19.7064 17.5136 19.7064 17.2204 19.9996C16.9272 20.2928 16.9272 20.7681 17.2204 21.0613L19.875 23.7159C20.1682 24.0091 20.6434 24.0091 20.9366 23.7159C21.008 23.6449 21.0613 23.5623 21.0981 23.4745L24.6717 18.0238C24.9269 17.6976 24.8695 17.2257 24.5429 16.9704Z" fill="#D9D9D9"/>
</svg>
