<svg width="56" height="56" viewBox="0 0 56 56" fill="none" xmlns="http://www.w3.org/2000/svg">
<path d="M50.2937 30.3284C50.2937 44.0009 39.21 55.0846 25.5375 55.0846C11.865 55.0846 0.78125 44.0009 0.78125 30.3284C0.78125 16.6559 11.865 5.57214 25.5375 5.57214C39.21 5.57214 50.2937 16.6559 50.2937 30.3284Z" fill="#FA7A36"/>
<path fill-rule="evenodd" clip-rule="evenodd" d="M51.6582 42.469C54.1089 38.3133 55.515 33.468 55.515 28.2943C55.515 12.8613 43.004 0.350342 27.571 0.350342C27.2807 0.350342 26.9913 0.35477 26.7031 0.363563L27.715 2.0708C42.1318 2.14829 53.7949 13.8593 53.7949 28.2943C53.7949 32.8075 52.6548 37.0544 50.6469 40.7627L51.6582 42.469Z" fill="#4E3B95"/>
<mask id="mask0_843_7021" style="mask-type:alpha" maskUnits="userSpaceOnUse" x="0" y="5" width="51" height="51">
<circle cx="25.5375" cy="30.3284" r="24.7562" fill="#D9D9D9"/>
</mask>
<g mask="url(#mask0_843_7021)">
<path d="M31.8774 57.1974C29.907 54.4607 28.3653 47.8015 28.1829 45.1561L18.8099 41.1195L14.9102 57.1974H31.8774Z" fill="#FC909F" stroke="black" stroke-width="0.54733"/>
<mask id="mask1_843_7021" style="mask-type:alpha" maskUnits="userSpaceOnUse" x="14" y="41" width="18" height="17">
<path d="M31.8774 57.1974C29.907 54.4607 28.3653 47.8015 28.1829 45.1561L18.8099 41.1195L14.9102 57.1974H31.8774Z" fill="#FFEDEF"/>
</mask>
<g mask="url(#mask1_843_7021)">
<ellipse cx="28.2567" cy="40.919" rx="8.07311" ry="7.38895" fill="black"/>
</g>
<g clip-path="url(#clip0_843_7021)">
<path d="M32.3637 57.2702C30.3933 54.5336 28.8517 47.8744 28.6692 45.229L19.2962 41.1924L15.3965 57.2702H32.3637Z" fill="#77311D" stroke="black" stroke-width="0.54733"/>
<mask id="mask2_843_7021" style="mask-type:alpha" maskUnits="userSpaceOnUse" x="15" y="41" width="18" height="17">
<path d="M32.3617 57.2702C30.3914 54.5336 28.8497 47.8744 28.6673 45.229L19.2943 41.1924L15.3945 57.2702H32.3617Z" fill="#AC6651"/>
</mask>
<g mask="url(#mask2_843_7021)">
<ellipse cx="28.2567" cy="40.9187" rx="8.07311" ry="7.38895" fill="black"/>
</g>
<mask id="path-10-inside-1_843_7021" fill="white">
<path fill-rule="evenodd" clip-rule="evenodd" d="M36.4591 32.8574C36.4536 32.8339 36.4481 32.8105 36.4425 32.787C36.4368 32.7635 36.4311 32.7401 36.4254 32.7167L34.1947 23.4063C34.1901 23.3866 34.1854 23.367 34.1807 23.3473C34.176 23.3276 34.1712 23.308 34.1664 23.2884L34.1639 23.278L34.1639 23.278C32.7657 17.607 27.0493 14.12 21.3606 15.483C15.6719 16.846 12.1564 22.5448 13.4799 28.2337L13.4795 28.2338L15.974 38.6454L16.0131 38.636C17.7376 43.8157 23.1704 46.9028 28.5782 45.6071C33.9859 44.3115 37.4299 39.0976 36.6199 33.6988L36.6585 33.6896L36.4591 32.8574Z"/>
</mask>
<path fill-rule="evenodd" clip-rule="evenodd" d="M36.4591 32.8574C36.4536 32.8339 36.4481 32.8105 36.4425 32.787C36.4368 32.7635 36.4311 32.7401 36.4254 32.7167L34.1947 23.4063C34.1901 23.3866 34.1854 23.367 34.1807 23.3473C34.176 23.3276 34.1712 23.308 34.1664 23.2884L34.1639 23.278L34.1639 23.278C32.7657 17.607 27.0493 14.12 21.3606 15.483C15.6719 16.846 12.1564 22.5448 13.4799 28.2337L13.4795 28.2338L15.974 38.6454L16.0131 38.636C17.7376 43.8157 23.1704 46.9028 28.5782 45.6071C33.9859 44.3115 37.4299 39.0976 36.6199 33.6988L36.6585 33.6896L36.4591 32.8574Z" fill="#77311D"/>
<path d="M36.4591 32.8574L35.926 32.9814L35.9268 32.9849L36.4591 32.8574ZM36.4254 32.7167L35.8931 32.8442L35.894 32.8478L36.4254 32.7167ZM34.1947 23.4063L33.6617 23.5309L33.6624 23.5338L34.1947 23.4063ZM34.1807 23.3473L34.713 23.2198L34.713 23.2198L34.1807 23.3473ZM34.1664 23.2884L33.6341 23.4159L33.6349 23.4189L34.1664 23.2884ZM34.1639 23.278L34.6962 23.1504L34.5683 22.6167L34.035 22.746L34.1639 23.278ZM34.1639 23.278L33.6324 23.409L33.763 23.9383L34.2928 23.8099L34.1639 23.278ZM21.3606 15.483L21.4881 16.0153L21.3606 15.483ZM13.4799 28.2337L13.6069 28.766L14.1363 28.6397L14.013 28.1096L13.4799 28.2337ZM13.4795 28.2338L13.3525 27.7014L12.8196 27.8285L12.9472 28.3613L13.4795 28.2338ZM15.974 38.6454L15.4418 38.7729L15.5693 39.3052L16.1016 39.1776L15.974 38.6454ZM16.0131 38.636L16.5324 38.4631L16.3738 37.9868L15.8856 38.1037L16.0131 38.636ZM28.5782 45.6071L28.7057 46.1394L28.5782 45.6071ZM36.6199 33.6988L36.4923 33.1666L36.0041 33.2835L36.0786 33.78L36.6199 33.6988ZM36.6585 33.6896L36.786 34.2218L37.3183 34.0943L37.1907 33.562L36.6585 33.6896ZM36.9922 32.7334C36.9864 32.7088 36.9806 32.6841 36.9747 32.6595L35.9102 32.9145C35.9155 32.9368 35.9208 32.9591 35.926 32.9814L36.9922 32.7334ZM36.9747 32.6595C36.9688 32.6348 36.9628 32.6102 36.9568 32.5856L35.894 32.8478C35.8994 32.87 35.9049 32.8922 35.9102 32.9145L36.9747 32.6595ZM33.6624 23.5338L35.8931 32.8442L36.9576 32.5892L34.7269 23.2788L33.6624 23.5338ZM34.7276 23.2817C34.7228 23.2611 34.7179 23.2404 34.713 23.2198L33.6484 23.4748C33.6529 23.4935 33.6573 23.5122 33.6617 23.5309L34.7276 23.2817ZM34.713 23.2198C34.708 23.1991 34.703 23.1785 34.698 23.1579L33.6349 23.4189C33.6394 23.4375 33.644 23.4561 33.6485 23.4749L34.713 23.2198ZM33.6317 23.4055L33.6342 23.4159L34.6987 23.1609L34.6962 23.1504L33.6317 23.4055ZM34.2928 23.8099L34.2929 23.8099L34.035 22.746L34.0349 22.746L34.2928 23.8099ZM34.6953 23.1469C33.2251 17.184 27.2146 13.5176 21.2331 14.9507L21.4881 16.0153C26.884 14.7225 32.3062 18.03 33.6324 23.409L34.6953 23.1469ZM21.2331 14.9507C15.2516 16.3838 11.5551 22.376 12.9468 28.3577L14.013 28.1096C12.7576 22.7136 16.0922 17.3081 21.4881 16.0153L21.2331 14.9507ZM13.6065 28.7661L13.6069 28.766L13.3529 27.7013L13.3525 27.7014L13.6065 28.7661ZM16.5063 38.5178L14.0118 28.1062L12.9472 28.3613L15.4418 38.7729L16.5063 38.5178ZM15.8856 38.1037L15.8465 38.1131L16.1016 39.1776L16.1406 39.1683L15.8856 38.1037ZM15.4938 38.8089C17.3072 44.2557 23.0193 47.5018 28.7057 46.1394L28.4506 45.0748C23.3215 46.3037 18.168 43.3757 16.5324 38.4631L15.4938 38.8089ZM28.7057 46.1394C34.392 44.777 38.0129 39.2948 37.1611 33.6176L36.0786 33.78C36.8468 38.9004 33.5798 43.8459 28.4506 45.0748L28.7057 46.1394ZM36.5309 33.1573L36.4923 33.1666L36.7474 34.2311L36.786 34.2218L36.5309 33.1573ZM35.9268 32.9849L36.1262 33.8171L37.1907 33.562L36.9913 32.7299L35.9268 32.9849Z" fill="black" mask="url(#path-10-inside-1_843_7021)"/>
</g>
<path d="M24.9729 37.3837C25.6489 38.2658 26.6734 39.2431 28.2536 39.0202C29.8339 38.7974 30.537 37.7073 30.3297 36.8245" stroke="black" stroke-width="0.54733"/>
<path d="M28.9414 24.3915C29.7168 24.0266 31.5412 23.6936 32.6359 25.2809" stroke="black" stroke-width="0.54733" stroke-linecap="round"/>
<path d="M18.6223 27.8542C18.9057 27.0455 19.9471 25.511 21.8465 25.843" stroke="black" stroke-width="0.54733" stroke-linecap="round"/>
<path d="M35.3873 17.8915C34.2486 23.3507 20.7903 24.1174 18.078 24.1174C10.9596 24.9283 14.3763 33.4721 15.6834 37.7322C14.6572 37.869 14.794 39.1005 10.8259 29.317C7.65136 21.4902 16.6421 16.7199 23.3217 15.1006C30.0012 13.4813 32.5578 11.2012 32.5578 11.2012C35.3873 12.364 36.0631 14.6516 35.3873 17.8915Z" fill="black"/>
<path d="M34.6968 27.9556L32.5323 20.6433L33.9058 19.3923C35.3776 24.4671 35.4449 27.414 34.6968 27.9556Z" fill="black"/>
<path d="M17.9947 33.8036C17.2284 30.0817 15.3036 30.7477 14.0265 30.9301L12.6582 24.9095L18.2115 23.7472C18.3143 23.7143 18.4244 23.691 18.542 23.678L18.2115 23.7472C15.7278 24.5399 17.4414 30.9021 19.4998 33.5299L17.9947 33.8036Z" fill="black"/>
<path d="M10.4686 19.7595C11.6789 19.15 13.1083 19.5028 13.6717 19.7554L12.0611 21.7915C12.4764 21.1269 11.1725 20.1599 10.4686 19.7595Z" fill="black"/>
<path d="M8.41797 22.1043C10.0052 21.1739 11.5423 21.4886 12.1124 21.7623L11.4967 23.8832C11.3325 22.7338 9.3758 22.2184 8.41797 22.1043Z" fill="black"/>
<ellipse cx="22.4117" cy="28.9941" rx="1.23149" ry="1.36832" transform="rotate(-6.77646 22.4117 28.9941)" fill="black"/>
<ellipse cx="31.1725" cy="27.6253" rx="1.23149" ry="1.36832" transform="rotate(-6.27568 31.1725 27.6253)" fill="black"/>
<circle cx="31.0618" cy="28.0566" r="3.55764" stroke="#F4D150" stroke-width="0.54733"/>
<circle cx="21.8938" cy="29.2881" r="3.55764" stroke="#F4D150" stroke-width="0.54733"/>
<path d="M27.6405 29.0145C27.6405 28.7241 27.5252 28.4457 27.3199 28.2404C27.1146 28.0351 26.8362 27.9198 26.5458 27.9198C26.2555 27.9198 25.9771 28.0351 25.7718 28.2404C25.5665 28.4457 25.4512 28.7241 25.4512 29.0145" stroke="#F4D150" stroke-width="0.54733"/>
<path d="M18.4058 29.5618L14.3008 30.3143" stroke="#F4D150" stroke-width="0.54733"/>
<path d="M26.6952 30.2668C26.723 30.7926 26.9275 31.92 27.5229 32.2232C28.267 32.6022 27.6836 33.8587 26.2905 33.7781" stroke="black" stroke-width="0.54733"/>
<path d="M16.0107 30.9541C15.6919 30.8491 15.3477 30.7932 14.9954 30.7932C13.5596 30.7932 12.3956 31.6826 12.5324 33.3246C12.675 35.035 13.6964 35.6508 15.1322 35.6508C15.292 35.6508 15.4484 35.6367 15.6002 35.6099C15.7659 35.5805 15.926 35.536 16.0791 35.4776" stroke="black" stroke-width="1.09466"/>
<path d="M16.1475 35.4505C15.8356 35.5794 15.4925 35.6508 15.1322 35.6508C13.6964 35.6508 12.675 35.035 12.5324 33.3246C12.3956 31.6826 13.5596 30.7932 14.9954 30.7932C15.4247 30.7932 15.842 30.8762 16.216 31.0299L16.1475 35.4505Z" fill="#77311D"/>
<path d="M15.6014 31.9563C15.0541 31.7054 13.85 31.5732 13.4121 33.051" stroke="black" stroke-width="0.54733"/>
<path d="M14.1641 32.0247C14.4605 32.2755 15.0261 33.0509 14.9166 34.1456" stroke="black" stroke-width="0.54733"/>
<path d="M30.3849 51.5165L30.404 51.5209L30.4236 51.5225C36.7351 52.043 40.5197 54.8465 43.2665 58.7072H5.86754C8.09787 54.6923 11.2701 52.1367 16.4132 50.9641C18.6044 50.4645 21.157 50.2153 24.1518 50.2153C25.4457 50.2153 26.4525 50.4127 27.4079 50.6731C27.7619 50.7696 28.1176 50.8777 28.4816 50.9883C29.0839 51.1714 29.7088 51.3612 30.3849 51.5165Z" fill="#9287FF" stroke="black" stroke-width="0.54733"/>
<path d="M14.838 51.2609L16.0905 48.5794C16.1204 48.5154 16.1947 48.4849 16.2614 48.5085C21.4509 50.3455 26.172 50.2161 30.5472 48.9982C30.6022 48.9829 30.6611 49.0032 30.6948 49.0493L32.6012 51.6563C32.6536 51.728 32.6269 51.829 32.5442 51.8615C27.9457 53.6672 19.3169 53.3602 14.9044 51.4419C14.8344 51.4115 14.8057 51.3301 14.838 51.2609Z" fill="#E0DDFF" stroke="black" stroke-width="0.54733"/>
</g>
<defs>
<clipPath id="clip0_843_7021">
<rect width="27.3665" height="45.1547" fill="white" transform="translate(11.291 12.1841)"/>
</clipPath>
</defs>
</svg>
