<svg width="46" height="46" viewBox="0 0 46 46" fill="none" xmlns="http://www.w3.org/2000/svg">
<path d="M31.5723 34.5411C27.7019 37.5454 22.8321 38.9618 17.9541 38.502C13.0762 38.0422 8.55683 35.7408 5.31593 32.0662C2.07504 28.3917 0.356247 23.6202 0.509425 18.7231C0.662603 13.8259 2.67624 9.17117 6.14044 5.70636C9.60525 2.24215 14.26 0.228521 19.1571 0.0753426C24.0543 -0.0778352 28.8258 1.64096 32.5003 4.88185C36.1749 8.12274 38.4763 12.6421 38.9361 17.5201C39.3958 22.398 37.9795 27.2678 34.9752 31.1382L44.7345 40.8975C45.0514 41.1918 45.2831 41.5661 45.4052 41.9811C45.5272 42.396 45.5351 42.8361 45.4279 43.2552C45.3208 43.6742 45.1026 44.0565 44.7964 44.362C44.4902 44.6674 44.1072 44.8846 43.6879 44.9906C43.2694 45.0979 42.8297 45.0904 42.415 44.969C42.0004 44.8475 41.6261 44.6166 41.3316 44.3004L31.5723 34.5411ZM34.2048 19.3244C34.2333 17.4098 33.8809 15.5086 33.1679 13.7315C32.455 11.9544 31.3958 10.3367 30.0519 8.97269C28.7081 7.60865 27.1064 6.52546 25.3401 5.7861C23.5738 5.04675 21.6781 4.66599 19.7633 4.66599C17.8485 4.66599 15.9528 5.04675 14.1865 5.7861C12.4202 6.52546 10.8185 7.60865 9.47465 8.97269C8.1308 10.3367 7.0716 11.9544 6.35866 13.7315C5.64572 15.5086 5.29327 17.4098 5.32182 19.3244C5.37837 23.1172 6.92476 26.7356 9.62691 29.3977C12.3291 32.0599 15.97 33.5521 19.7633 33.5521C23.5565 33.5521 27.1975 32.0599 29.8997 29.3977C32.6018 26.7356 34.1482 23.1172 34.2048 19.3244Z" fill="#D9D9D9"/>
</svg>
