<svg width="21" height="11" viewBox="0 0 21 11" fill="none" xmlns="http://www.w3.org/2000/svg">
<path d="M17.2812 4.88889C17.434 4.88889 17.5836 4.91435 17.73 4.96528C17.8764 5.0162 18.0101 5.08304 18.1311 5.1658C18.252 5.24855 18.3571 5.35359 18.4462 5.4809C18.5353 5.60822 18.6117 5.7419 18.6753 5.88194C18.7072 5.97106 18.7708 6.13657 18.8663 6.37847C18.9618 6.62037 19.0732 6.90046 19.2005 7.21875C19.3278 7.53704 19.4552 7.87124 19.5825 8.22135C19.7098 8.57147 19.8307 8.89931 19.9453 9.20486C20.0599 9.51042 20.1522 9.77141 20.2222 9.98785C20.2922 10.2043 20.3304 10.338 20.3368 10.3889C20.3368 10.5608 20.2763 10.704 20.1554 10.8186C20.0344 10.9332 19.8912 10.9936 19.7257 11H8.72569C8.56018 11 8.41696 10.9427 8.29601 10.8281C8.17506 10.7135 8.11458 10.5671 8.11458 10.3889C8.11458 10.3125 8.14005 10.1916 8.19097 10.026C8.2419 9.86053 8.30556 9.68229 8.38194 9.49132C8.45833 9.30035 8.53154 9.11892 8.60156 8.94705C8.67159 8.77517 8.72569 8.64468 8.76389 8.55556H5.05903C4.89352 8.55556 4.75029 8.49826 4.62934 8.38368C4.50839 8.2691 4.44792 8.12269 4.44792 7.94444C4.44792 7.86806 4.47338 7.74711 4.52431 7.5816C4.57523 7.41609 4.63889 7.23785 4.71528 7.04688C4.79167 6.8559 4.86487 6.67448 4.9349 6.5026C5.00492 6.33073 5.05903 6.20023 5.09722 6.11111H1.39236C1.22685 6.11111 1.08362 6.05382 0.962674 5.93924C0.841725 5.82465 0.78125 5.67824 0.78125 5.5C0.78125 5.44907 0.816262 5.31539 0.886285 5.09896C0.956308 4.88252 1.04861 4.62153 1.16319 4.31597C1.27778 4.01042 1.40191 3.68258 1.53559 3.33247C1.66927 2.98235 1.79659 2.64497 1.91753 2.32031C2.03848 1.99566 2.1467 1.71557 2.24219 1.48003C2.33767 1.2445 2.40451 1.07581 2.44271 0.973958C2.55093 0.6875 2.73235 0.45515 2.98698 0.27691C3.24161 0.098669 3.52488 0.00636574 3.83681 0H9.94792C10.1007 0 10.2503 0.025463 10.3967 0.0763889C10.5431 0.127315 10.6768 0.194155 10.7977 0.27691C10.9187 0.359664 11.0237 0.464699 11.1128 0.592014C11.202 0.719329 11.2784 0.853009 11.342 0.993056L11.8958 2.44444H13.6146C13.7674 2.44444 13.917 2.46991 14.0634 2.52083C14.2098 2.57176 14.3435 2.6386 14.4644 2.72135C14.5854 2.80411 14.6904 2.90914 14.7795 3.03646C14.8686 3.16377 14.945 3.29745 15.0087 3.4375L15.5625 4.88889H17.2812ZM5.55556 4.88889L6.10938 3.4184C6.21759 3.13194 6.39902 2.89959 6.65365 2.72135C6.90828 2.54311 7.19155 2.45081 7.50347 2.44444H10.5877L10.1962 1.40365C10.1834 1.36545 10.1516 1.32726 10.1007 1.28906C10.0498 1.25087 9.99884 1.22859 9.94792 1.22222H3.83681C3.79225 1.22222 3.7445 1.24132 3.69358 1.27951C3.64265 1.31771 3.61082 1.3559 3.59809 1.3941L2.27083 4.88889H5.55556ZM9.22222 7.33333L9.77604 5.86285C9.88426 5.57639 10.0657 5.34404 10.3203 5.1658C10.5749 4.98756 10.8582 4.89525 11.1701 4.88889H14.2543L13.8628 3.84809C13.8501 3.8099 13.8183 3.7717 13.7674 3.73351C13.7164 3.69531 13.6655 3.67303 13.6146 3.66667H7.50347C7.45891 3.66667 7.41117 3.68576 7.36024 3.72396C7.30932 3.76215 7.27749 3.80035 7.26476 3.83854C7.04196 4.42419 6.82234 5.00666 6.6059 5.58594C6.38947 6.16522 6.16667 6.74768 5.9375 7.33333H9.22222ZM18.8472 9.77778L17.5295 6.29253C17.5168 6.25434 17.485 6.21615 17.434 6.17795C17.3831 6.13976 17.3322 6.11748 17.2812 6.11111H11.1701C11.1256 6.11111 11.0778 6.13021 11.0269 6.1684C10.976 6.2066 10.9442 6.24479 10.9314 6.28299L10.5304 7.33333L10.072 8.55556C9.91927 8.96296 9.76331 9.37037 9.60417 9.77778H18.8472Z" fill="#7544EB"/>
</svg>
