<svg width="26" height="26" viewBox="0 0 26 26" fill="none" xmlns="http://www.w3.org/2000/svg">
<path d="M9.75418 25.5607L9.24685 21.5021C8.97204 21.3964 8.71288 21.2695 8.46936 21.1216C8.22584 20.9736 7.98824 20.815 7.75656 20.6459L3.98327 22.2313L0.495361 16.2068L3.76131 13.7335C3.74017 13.5856 3.72961 13.4427 3.72961 13.3048V12.45C3.72961 12.3121 3.74017 12.1693 3.76131 12.0213L0.495361 9.54803L3.98327 3.52346L7.75656 5.10887C7.98908 4.93976 8.23218 4.78122 8.48585 4.63325C8.73951 4.48528 8.99318 4.35845 9.24685 4.25275L9.75418 0.194092H16.73L17.2373 4.25275C17.5121 4.35845 17.7713 4.48528 18.0148 4.63325C18.2583 4.78122 18.4959 4.93976 18.7276 5.10887L22.5009 3.52346L25.9888 9.54803L22.7229 12.0213C22.744 12.1693 22.7546 12.3121 22.7546 12.45V13.3048C22.7546 13.4427 22.7334 13.5856 22.6912 13.7335L25.9571 16.2068L22.4692 22.2313L18.7276 20.6459C18.4951 20.815 18.252 20.9736 17.9983 21.1216C17.7447 21.2695 17.491 21.3964 17.2373 21.5021L16.73 25.5607H9.75418ZM13.3055 17.3166C14.5316 17.3166 15.5779 16.8832 16.4446 16.0165C17.3113 15.1498 17.7447 14.1035 17.7447 12.8774C17.7447 11.6513 17.3113 10.605 16.4446 9.73828C15.5779 8.87159 14.5316 8.43824 13.3055 8.43824C12.0583 8.43824 11.0064 8.87159 10.1499 9.73828C9.29335 10.605 8.8655 11.6513 8.86635 12.8774C8.86635 14.1035 9.2942 15.1498 10.1499 16.0165C11.0056 16.8832 12.0575 17.3166 13.3055 17.3166ZM13.3055 14.7799C12.777 14.7799 12.3276 14.5947 11.9573 14.2244C11.5869 13.854 11.4022 13.405 11.403 12.8774C11.403 12.3489 11.5882 11.8995 11.9585 11.5292C12.3289 11.1588 12.7779 10.9741 13.3055 10.9749C13.834 10.9749 14.2834 11.1601 14.6537 11.5304C15.0241 11.9008 15.2088 12.3498 15.208 12.8774C15.208 13.4059 15.0228 13.8553 14.6525 14.2256C14.2821 14.596 13.8331 14.7807 13.3055 14.7799ZM11.9738 23.0241H14.4787L14.9226 19.663C15.5779 19.4939 16.1859 19.2453 16.7465 18.9172C17.3071 18.5891 17.8195 18.193 18.2837 17.7288L21.4228 19.0288L22.6594 16.8726L19.9325 14.8116C20.0382 14.5157 20.1122 14.2041 20.1545 13.8768C20.1968 13.5496 20.2179 13.2165 20.2179 12.8774C20.2179 12.5392 20.1968 12.2065 20.1545 11.8792C20.1122 11.552 20.0382 11.24 19.9325 10.9432L22.6594 8.88216L21.4228 6.726L18.2837 8.05774C17.8187 7.57155 17.3062 7.16484 16.7465 6.83761C16.1867 6.51038 15.5788 6.26179 14.9226 6.09183L14.5104 2.73075H12.0055L11.5616 6.09183C10.9062 6.26094 10.2987 6.50953 9.73896 6.83761C9.1792 7.16568 8.66637 7.56183 8.20047 8.02604L5.06135 6.726L3.82473 8.88216L6.55164 10.9115C6.44595 11.2286 6.37196 11.5457 6.32968 11.8627C6.28741 12.1798 6.26627 12.518 6.26627 12.8774C6.26627 13.2156 6.28741 13.5433 6.32968 13.8604C6.37196 14.1774 6.44595 14.4945 6.55164 14.8116L3.82473 16.8726L5.06135 19.0288L8.20047 17.6971C8.66553 18.1833 9.17836 18.5904 9.73896 18.9185C10.2996 19.2465 10.9071 19.4947 11.5616 19.663L11.9738 23.0241Z" fill="#919AAB"/>
</svg>
