<svg width="34" height="31" viewBox="0 0 34 31" fill="none" xmlns="http://www.w3.org/2000/svg">
<path d="M12.1981 1.21241C9.71215 2.04107 7.68337 3.38406 5.85462 5.35569C4.45447 6.8987 3.02576 9.47038 2.59715 11.1848C2.45427 11.8992 2.51142 11.9849 3.16863 11.9849C3.56867 11.9849 3.91156 11.8135 3.91156 11.6135C3.91156 10.9277 5.39743 8.12739 6.39753 6.8987C7.91196 5.06994 10.4837 3.26976 12.6553 2.5554C14.2269 2.01249 14.9984 1.92677 17.4272 2.04107C19.9703 2.12679 20.599 2.26966 22.2563 3.04117C24.7994 4.24129 25.9709 5.15567 27.5139 7.18444C28.9141 8.98462 29.457 10.099 29.9142 12.0992C30.1713 13.2708 30.1428 13.4708 29.6284 13.9851C28.8855 14.7281 28.9141 15.4424 29.657 16.3854C30.0285 16.8711 30.5142 17.1283 31.0571 17.1283C31.6001 17.1283 32.0858 16.8711 32.4573 16.3854C33.2288 15.3853 33.2288 15.1281 32.2287 13.8994C31.8001 13.3279 31.3429 12.3278 31.2286 11.6706C30.9143 9.69898 29.1141 6.58438 27.2282 4.69848C25.3994 2.8983 22.742 1.38386 20.4847 0.86952C18.1987 0.326609 14.2555 0.498055 12.1981 1.21241Z" fill="#919AAB"/>
<path d="M15.0557 4.32708C11.4267 4.89857 8.31215 7.29881 6.68341 10.7849C5.88333 12.4993 5.79761 12.9851 5.79761 15.271C5.79761 17.557 5.88333 18.0427 6.68341 19.7572C8.36929 23.329 11.2839 25.6149 15.0843 26.2721C19.8562 27.1008 24.7709 24.5291 26.9426 20.1001C27.9998 17.9284 28.2284 14.2709 27.4855 11.9564C25.7425 6.67018 20.4848 3.44128 15.0557 4.32708ZM18.9132 7.69885C19.1418 8.72753 19.6276 8.78467 20.9706 7.84172C21.7421 7.35596 22.1421 7.21309 22.5136 7.41311C23.1708 7.78457 25.3424 10.2705 25.3424 10.6706C25.3139 10.842 24.4566 11.4992 23.3994 12.1279C21.7706 13.128 21.4849 13.3851 21.5706 13.9852C21.7421 15.1282 22.8279 16.5283 23.8566 16.8998C24.3423 17.0998 24.7709 17.2998 24.7995 17.4141C24.8281 17.6713 24.9995 18.4428 25.1996 19.3857C25.371 20.1572 25.2281 20.4144 23.9423 21.786C20.942 24.9577 16.913 25.815 12.9126 24.1576C10.2838 23.0432 8.255 20.5573 7.45492 17.4141C6.96915 15.4711 7.05488 14.2424 7.79781 11.8993C8.255 10.5563 8.76933 10.3277 8.76933 11.4707C8.76933 12.6422 10.1695 14.5567 11.341 15.0139C12.3697 15.4425 12.484 15.5854 12.7983 17.0712C13.2269 19.2429 15.8272 23.7005 16.6273 23.7005C17.1416 23.7005 17.3416 23.2718 17.9988 20.7573C18.8561 17.6141 18.7703 16.4712 17.7131 16.1854C13.5984 14.9853 13.0269 14.7567 12.6269 14.1852C12.2268 13.6137 12.2268 13.5566 12.684 13.3566C12.9698 13.2708 13.6555 13.1565 14.227 13.1565C15.1128 13.128 15.3414 12.9851 15.6272 12.2993C15.7986 11.8135 16.3987 11.1563 16.9416 10.7849C17.9988 10.0705 18.1417 9.41331 17.5131 8.24176C17.1416 7.5274 17.1702 7.44168 17.7417 7.18451C18.6275 6.72732 18.7132 6.7559 18.9132 7.69885Z" fill="#919AAB"/>
<path d="M1.3398 13.9852C0.568293 14.7567 0.625441 15.8711 1.4541 16.6997C1.82556 17.0712 2.2256 17.8998 2.3399 18.5571C2.71137 20.7573 4.59727 24.0147 6.59747 25.9292C12.2838 31.3869 21.0275 31.5584 26.8281 26.3293C28.5997 24.7291 30.6856 21.3859 31.1999 19.3857C31.3714 18.7285 31.2857 18.6142 30.657 18.4999C30.0855 18.3856 29.9141 18.4999 29.7712 19.1C29.3998 20.5573 28.1711 22.8146 26.9709 24.1576C23.8278 27.7294 18.8558 29.4153 14.3125 28.4723C11.598 27.9008 9.5692 26.815 7.569 24.9005C4.91159 22.3574 2.93996 17.7855 4.02578 16.6711C5.19733 15.5282 4.25438 13.4137 2.59707 13.4137C2.2256 13.4137 1.65412 13.6708 1.3398 13.9852Z" fill="#919AAB"/>
<rect x="23.231" y="0.916016" width="8.28" height="8.28" rx="1.02832" fill="#D24A46"/>
</svg>
