<svg width="14" height="14" viewBox="0 0 14 14" fill="none" xmlns="http://www.w3.org/2000/svg">
<path d="M6.78125 3.66667V7L8.11458 5M0.78125 7C0.78125 7.78793 0.936445 8.56815 1.23797 9.2961C1.5395 10.0241 1.98146 10.6855 2.53861 11.2426C3.09576 11.7998 3.7572 12.2417 4.48515 12.5433C5.2131 12.8448 5.99332 13 6.78125 13C7.56918 13 8.3494 12.8448 9.07735 12.5433C9.8053 12.2417 10.4667 11.7998 11.0239 11.2426C11.581 10.6855 12.023 10.0241 12.3245 9.2961C12.6261 8.56815 12.7813 7.78793 12.7813 7C12.7813 6.21207 12.6261 5.43185 12.3245 4.7039C12.023 3.97595 11.581 3.31451 11.0239 2.75736C10.4667 2.20021 9.8053 1.75825 9.07735 1.45672C8.3494 1.15519 7.56918 1 6.78125 1C5.99332 1 5.2131 1.15519 4.48515 1.45672C3.7572 1.75825 3.09576 2.20021 2.53861 2.75736C1.98146 3.31451 1.5395 3.97595 1.23797 4.7039C0.936445 5.43185 0.78125 6.21207 0.78125 7Z" stroke="#7544EB" stroke-width="1.33333" stroke-linecap="round" stroke-linejoin="round"/>
</svg>
