<svg width="27" height="27" viewBox="0 0 27 27" fill="none" xmlns="http://www.w3.org/2000/svg">
<path d="M13.2813 7.11111V13.5L15.8368 9.66667M1.78125 13.5C1.78125 15.0102 2.07871 16.5056 2.65664 17.9009C3.23456 19.2961 4.08165 20.5639 5.14952 21.6317C6.2174 22.6996 7.48515 23.5467 8.88039 24.1246C10.2756 24.7025 11.771 25 13.2813 25C14.7915 25 16.2869 24.7025 17.6821 24.1246C19.0774 23.5467 20.3451 22.6996 21.413 21.6317C22.4809 20.5639 23.3279 19.2961 23.9059 17.9009C24.4838 16.5056 24.7813 15.0102 24.7813 13.5C24.7813 11.9898 24.4838 10.4944 23.9059 9.09914C23.3279 7.7039 22.4809 6.43615 21.413 5.36827C20.3451 4.3004 19.0774 3.45331 17.6821 2.87539C16.2869 2.29746 14.7915 2 13.2813 2C11.771 2 10.2756 2.29746 8.88039 2.87539C7.48515 3.45331 6.2174 4.3004 5.14952 5.36827C4.08165 6.43615 3.23456 7.7039 2.65664 9.09914C2.07871 10.4944 1.78125 11.9898 1.78125 13.5Z" stroke="#D9D9D9" stroke-width="2.55556" stroke-linecap="round" stroke-linejoin="round"/>
</svg>
