<svg width="58" height="55" viewBox="0 0 58 55" fill="none" xmlns="http://www.w3.org/2000/svg">
<rect x="0.581543" y="0.296143" width="56.5046" height="54.6121" rx="15" fill="#FEF3E9"/>
<path d="M19.0857 35.7258L19.0857 19.4786M38.5823 19.4786L38.5823 35.7258" stroke="#F4D150" stroke-width="3.24943" stroke-linecap="round" stroke-linejoin="round"/>
<path d="M38.5823 35.7258C38.5823 38.4177 34.2178 40.6 28.834 40.6C23.4502 40.6 19.0857 38.4177 19.0857 35.7258" stroke="#F4D150" stroke-width="3.24943" stroke-linecap="round" stroke-linejoin="round"/>
<path d="M38.5823 27.6022C38.5823 30.2941 34.2178 32.4763 28.834 32.4763C23.4502 32.4763 19.0857 30.2941 19.0857 27.6022" stroke="#F4D150" stroke-width="3.24943" stroke-linecap="round" stroke-linejoin="round"/>
<path d="M28.834 24.3528C34.2178 24.3528 38.5823 22.1706 38.5823 19.4786C38.5823 16.7867 34.2178 14.6045 28.834 14.6045C23.4502 14.6045 19.0857 16.7867 19.0857 19.4786C19.0857 22.1706 23.4502 24.3528 28.834 24.3528Z" stroke="#F4D150" stroke-width="3.24943" stroke-linecap="round" stroke-linejoin="round"/>
</svg>
